solid OpenSCAD_Model
  facet normal 0.0228403 0.0228402 0.999478
    outer loop
      vertex 30.053 34.055 2.05208
      vertex 27.8858 30 2.19427
      vertex 30.349 33.4741 2.05859
    endloop
  endfacet
  facet normal 0.0228402 0.0228402 0.999478
    outer loop
      vertex 27.8858 30 2.19427
      vertex 30.053 34.055 2.05208
      vertex 24.9275 30 2.26187
    endloop
  endfacet
  facet normal 0.0397016 0.0106376 0.999155
    outer loop
      vertex 30.6621 33.3482 2.05316
      vertex 28.5174 30 2.17403
      vertex 31.0379 33.4077 2.03759
    endloop
  endfacet
  facet normal 0.039701 0.010638 0.999155
    outer loop
      vertex 28.5174 30 2.17403
      vertex 30.6621 33.3482 2.05316
      vertex 28.232 30 2.18537
    endloop
  endfacet
  facet normal 0.350519 -0.227629 0.908472
    outer loop
      vertex 33.4467 33.7523 1.68373
      vertex 32.8805 32.8804 1.68373
      vertex 34.6058 33.3074 1.12503
    endloop
  endfacet
  facet normal 0.726226 -0.687456 0
    outer loop
      vertex 30 27.0551 0
      vertex 34.2335 31.5274 0.395058
      vertex 30 27.0551 0.920825
    endloop
  endfacet
  facet normal 0.726226 -0.687456 0
    outer loop
      vertex 34.2335 31.5274 0.395058
      vertex 30 27.0551 0
      vertex 34.2335 31.5274 -0.00432968
    endloop
  endfacet
  facet normal 0.726226 -0.687456 0
    outer loop
      vertex 20.586 17.1102 -0.00432968
      vertex 30 27.0551 0
      vertex 20.586 17.1102 0
    endloop
  endfacet
  facet normal 0.726226 -0.687456 -0.000140625
    outer loop
      vertex 30 27.0551 0
      vertex 20.586 17.1102 -0.00432968
      vertex 34.2335 31.5274 -0.00432968
    endloop
  endfacet
  facet normal 0.726226 -0.687456 0
    outer loop
      vertex 15.3538 11.5829 0
      vertex 13.6809 9.81563 -0.00432968
      vertex 15.3538 11.5829 -0.00432968
    endloop
  endfacet
  facet normal 0.726226 -0.687456 6.70729e-05
    outer loop
      vertex 13.6809 9.81563 -0.00432968
      vertex 15.3538 11.5829 0
      vertex 13.6792 9.81383 0
    endloop
  endfacet
  facet normal 0.343163 -0.235495 0.909275
    outer loop
      vertex 30 29.429 1.87695
      vertex 33.7584 32.0025 1.12503
      vertex 32.8805 32.8804 1.68373
    endloop
  endfacet
  facet normal 0.343163 -0.235495 0.909275
    outer loop
      vertex 33.7584 32.0025 1.12503
      vertex 30 29.429 1.87695
      vertex 30 27.853 1.46878
    endloop
  endfacet
  facet normal -0.720095 0.693876 0
    outer loop
      vertex 27.4112 37.052 -0.00432968
      vertex 20.616 30 0
      vertex 27.4112 37.052 0.395058
    endloop
  endfacet
  facet normal -0.720095 0.693876 -0.00023799
    outer loop
      vertex 14.8451 24.011 -0.00432968
      vertex 20.616 30 0
      vertex 27.4112 37.052 -0.00432968
    endloop
  endfacet
  facet normal -0.720095 0.693876 0
    outer loop
      vertex 20.616 30 0
      vertex 14.8451 24.011 -0.00432968
      vertex 14.8451 24.011 0
    endloop
  endfacet
  facet normal -0.720095 0.693876 0
    outer loop
      vertex 27.4112 37.052 0.395058
      vertex 20.616 30 0
      vertex 20.616 30 1.22908
    endloop
  endfacet
  facet normal -0.720095 0.693876 0
    outer loop
      vertex 7.30767 16.1888 -0.00432968
      vertex 8.54105 17.4688 0
      vertex 8.54105 17.4688 -0.00432968
    endloop
  endfacet
  facet normal -0.720094 0.693876 -0.000137589
    outer loop
      vertex 8.54105 17.4688 0
      vertex 7.30767 16.1888 -0.00432968
      vertex 7.30595 16.1871 0
    endloop
  endfacet
  facet normal 0.573685 -0.463682 0.675193
    outer loop
      vertex 30 27.853 1.46878
      vertex 34.2335 31.5274 0.395058
      vertex 33.7584 32.0025 1.12503
    endloop
  endfacet
  facet normal 0.573684 -0.463681 0.675194
    outer loop
      vertex 34.2335 31.5274 0.395058
      vertex 30 27.853 1.46878
      vertex 30 27.0551 0.920825
    endloop
  endfacet
  facet normal 0.623269 -0.404755 0.669111
    outer loop
      vertex 34.6058 33.3074 1.12503
      vertex 33.7584 32.0025 1.12503
      vertex 34.2335 31.5274 0.395058
    endloop
  endfacet
  facet normal 0.284407 -0.184695 0.940745
    outer loop
      vertex 30 29.5894 1.90845
      vertex 32.8805 32.8804 1.68373
      vertex 33.4467 33.7523 1.68373
    endloop
  endfacet
  facet normal 0.284408 -0.184696 0.940744
    outer loop
      vertex 32.8805 32.8804 1.68373
      vertex 30 29.5894 1.90845
      vertex 30 29.429 1.87695
    endloop
  endfacet
  facet normal 0.189743 0.372392 0.908472
    outer loop
      vertex 32.0811 38.2624 1.12503
      vertex 31.7598 37.0631 1.68373
      vertex 32.686 36.5911 1.68373
    endloop
  endfacet
  facet normal -0.358368 0.93358 0
    outer loop
      vertex 30.4223 39.0074 -0.00432968
      vertex 28.7089 38.3497 0.395058
      vertex 30.4223 39.0074 0.395058
    endloop
  endfacet
  facet normal -0.358368 0.93358 0
    outer loop
      vertex 28.7089 38.3497 0.395058
      vertex 30.4223 39.0074 -0.00432968
      vertex 28.7089 38.3497 -0.00432968
    endloop
  endfacet
  facet normal 0.412799 -0.0653815 0.908472
    outer loop
      vertex 33.6093 34.7791 1.68373
      vertex 33.4467 33.7523 1.68373
      vertex 34.6058 33.3074 1.12503
    endloop
  endfacet
  facet normal 0.0687129 -0.0108832 0.997577
    outer loop
      vertex 31.0379 33.4077 2.03759
      vertex 28.6906 30 2.1621
      vertex 31.2668 33.444 2.02222
    endloop
  endfacet
  facet normal 0.068713 -0.0108833 0.997577
    outer loop
      vertex 28.6906 30 2.1621
      vertex 31.0379 33.4077 2.03759
      vertex 28.5174 30 2.17403
    endloop
  endfacet
  facet normal 0.184888 -0.029284 0.982323
    outer loop
      vertex 32.3516 34.7132 1.91848
      vertex 32.3073 34.4332 1.91848
      vertex 33.6093 34.7791 1.68373
    endloop
  endfacet
  facet normal -0.690923 0.690924 0.212718
    outer loop
      vertex 20.6553 30 1.35677
      vertex 27.4112 37.052 0.395058
      vertex 20.616 30 1.22908
    endloop
  endfacet
  facet normal -0.690924 0.690924 0.212714
    outer loop
      vertex 27.4112 37.052 0.395058
      vertex 20.6553 30 1.35677
      vertex 28.7089 38.3497 0.395058
    endloop
  endfacet
  facet normal 0.987688 -0.156435 0
    outer loop
      vertex 35.2331 33.0666 0.395058
      vertex 35.5202 34.8792 -0.00432968
      vertex 35.5202 34.8792 0.395058
    endloop
  endfacet
  facet normal 0.987688 -0.156435 0
    outer loop
      vertex 35.5202 34.8792 -0.00432968
      vertex 35.2331 33.0666 0.395058
      vertex 35.2331 33.0666 -0.00432968
    endloop
  endfacet
  facet normal 0.83867 -0.54464 0
    outer loop
      vertex 34.2335 31.5274 0.395058
      vertex 35.2331 33.0666 -0.00432968
      vertex 35.2331 33.0666 0.395058
    endloop
  endfacet
  facet normal 0.83867 -0.54464 0
    outer loop
      vertex 35.2331 33.0666 -0.00432968
      vertex 34.2335 31.5274 0.395058
      vertex 34.2335 31.5274 -0.00432968
    endloop
  endfacet
  facet normal 0.184887 -0.0292835 0.982323
    outer loop
      vertex 32.3073 34.4332 1.91848
      vertex 33.4467 33.7523 1.68373
      vertex 33.6093 34.7791 1.68373
    endloop
  endfacet
  facet normal 0.184887 -0.0292842 0.982323
    outer loop
      vertex 33.4467 33.7523 1.68373
      vertex 32.3073 34.4332 1.91848
      vertex 32.2709 34.2036 1.91848
    endloop
  endfacet
  facet normal 0.350519 -0.227629 0.908472
    outer loop
      vertex 34.6058 33.3074 1.12503
      vertex 32.8805 32.8804 1.68373
      vertex 33.7584 32.0025 1.12503
    endloop
  endfacet
  facet normal 0.717838 0.192344 0.669113
    outer loop
      vertex 35.0452 36.6519 0.395058
      vertex 34.4465 36.3469 1.12503
      vertex 34.8492 34.8441 1.12503
    endloop
  endfacet
  facet normal 0.180814 0.0484492 0.982323
    outer loop
      vertex 32.4012 35.0262 1.89391
      vertex 33.6093 34.7791 1.68373
      vertex 33.3403 35.7832 1.68373
    endloop
  endfacet
  facet normal 0.180814 0.0484486 0.982323
    outer loop
      vertex 33.6093 34.7791 1.68373
      vertex 32.4012 35.0262 1.89391
      vertex 32.3516 34.7132 1.91848
    endloop
  endfacet
  facet normal 0.4128 -0.0653811 0.908472
    outer loop
      vertex 34.8492 34.8441 1.12503
      vertex 33.6093 34.7791 1.68373
      vertex 34.6058 33.3074 1.12503
    endloop
  endfacet
  facet normal 0.164369 -0.0830329 0.982898
    outer loop
      vertex 31.2668 33.444 2.02222
      vertex 28.6906 30 2.1621
      vertex 30 30 1.94313
    endloop
  endfacet
  facet normal 0.16437 -0.0830328 0.982898
    outer loop
      vertex 32.1734 33.5876 1.88275
      vertex 33.4467 33.7523 1.68373
      vertex 32.2709 34.2036 1.91848
    endloop
  endfacet
  facet normal 0.164369 -0.0830329 0.982898
    outer loop
      vertex 30 30 1.94313
      vertex 32.1734 33.5876 1.88275
      vertex 31.2668 33.444 2.02222
    endloop
  endfacet
  facet normal 0.16437 -0.083033 0.982898
    outer loop
      vertex 32.1734 33.5876 1.88275
      vertex 30 30 1.94313
      vertex 33.4467 33.7523 1.68373
    endloop
  endfacet
  facet normal 0.164369 -0.0830329 0.982898
    outer loop
      vertex 33.4467 33.7523 1.68373
      vertex 30 30 1.94313
      vertex 30 29.5894 1.90845
    endloop
  endfacet
  facet normal 0.0849827 0.16679 0.982323
    outer loop
      vertex 32.686 36.5911 1.68373
      vertex 31.6409 35.7411 1.91848
      vertex 31.8935 35.6124 1.91848
    endloop
  endfacet
  facet normal -0.707107 0.707107 0
    outer loop
      vertex 27.4112 37.052 -0.00432968
      vertex 28.7089 38.3497 0.395058
      vertex 28.7089 38.3497 -0.00432968
    endloop
  endfacet
  facet normal -0.707107 0.707107 0
    outer loop
      vertex 28.7089 38.3497 0.395058
      vertex 27.4112 37.052 -0.00432968
      vertex 27.4112 37.052 0.395058
    endloop
  endfacet
  facet normal 0.734011 -0.116256 0.669113
    outer loop
      vertex 34.8492 34.8441 1.12503
      vertex 34.6058 33.3074 1.12503
      vertex 35.2331 33.0666 0.395058
    endloop
  endfacet
  facet normal 0.623267 -0.404755 0.669113
    outer loop
      vertex 34.6058 33.3074 1.12503
      vertex 34.2335 31.5274 0.395058
      vertex 35.2331 33.0666 0.395058
    endloop
  endfacet
  facet normal 0.965926 0.258819 0
    outer loop
      vertex 35.5202 34.8792 0.395058
      vertex 35.0452 36.6519 -0.00432968
      vertex 35.0452 36.6519 0.395058
    endloop
  endfacet
  facet normal 0.965926 0.258819 0
    outer loop
      vertex 35.0452 36.6519 -0.00432968
      vertex 35.5202 34.8792 0.395058
      vertex 35.5202 34.8792 -0.00432968
    endloop
  endfacet
  facet normal 0.403704 0.108172 0.908472
    outer loop
      vertex 34.4465 36.3469 1.12503
      vertex 33.6093 34.7791 1.68373
      vertex 34.8492 34.8441 1.12503
    endloop
  endfacet
  facet normal -0.248663 0.327598 0.911508
    outer loop
      vertex 29.0749 37.7862 1.12503
      vertex 22.4139 30 2.10626
      vertex 29.7511 36.745 1.68373
    endloop
  endfacet
  facet normal -0.248663 0.327598 0.911508
    outer loop
      vertex 22.4139 30 2.10626
      vertex 29.0749 37.7862 1.12503
      vertex 21.2436 30 1.78702
    endloop
  endfacet
  facet normal -0.149778 0.390186 0.908472
    outer loop
      vertex 30.7216 37.1175 1.68373
      vertex 29.0749 37.7862 1.12503
      vertex 29.7511 36.745 1.68373
    endloop
  endfacet
  facet normal -0.0903139 0.159824 0.983005
    outer loop
      vertex 29.7511 36.745 1.68373
      vertex 29.6312 34.8829 1.97546
      vertex 30.437 35.6887 1.91848
    endloop
  endfacet
  facet normal -0.0903144 0.159824 0.983005
    outer loop
      vertex 29.7511 36.745 1.68373
      vertex 24.1297 30 2.2639
      vertex 29.6312 34.8829 1.97546
    endloop
  endfacet
  facet normal -0.0903144 0.159824 0.983005
    outer loop
      vertex 24.1297 30 2.2639
      vertex 29.7511 36.745 1.68373
      vertex 22.4139 30 2.10626
    endloop
  endfacet
  facet normal -0.0903129 0.159823 0.983006
    outer loop
      vertex 29.7491 34.6515 2.02391
      vertex 29.6312 34.8829 1.97546
      vertex 24.1297 30 2.2639
    endloop
  endfacet
  facet normal 0.0849833 0.166789 0.982323
    outer loop
      vertex 31.7598 37.0631 1.68373
      vertex 31.6409 35.7411 1.91848
      vertex 32.686 36.5911 1.68373
    endloop
  endfacet
  facet normal 0.0849849 0.166789 0.982323
    outer loop
      vertex 31.6409 35.7411 1.91848
      vertex 31.7598 37.0631 1.68373
      vertex 31.4338 35.8466 1.91848
    endloop
  endfacet
  facet normal 0.324804 0.263021 0.908472
    outer loop
      vertex 33.4674 37.556 1.12503
      vertex 32.686 36.5911 1.68373
      vertex 33.3403 35.7832 1.68373
    endloop
  endfacet
  facet normal 0.717838 0.192344 0.669113
    outer loop
      vertex 35.0452 36.6519 0.395058
      vertex 34.8492 34.8441 1.12503
      vertex 35.5202 34.8792 0.395058
    endloop
  endfacet
  facet normal 0.734011 -0.116256 0.669114
    outer loop
      vertex 35.5202 34.8792 0.395058
      vertex 34.8492 34.8441 1.12503
      vertex 35.2331 33.0666 0.395058
    endloop
  endfacet
  facet normal 0.403703 0.108173 0.908472
    outer loop
      vertex 34.4465 36.3469 1.12503
      vertex 33.3403 35.7832 1.68373
      vertex 33.6093 34.7791 1.68373
    endloop
  endfacet
  facet normal 0.145475 0.117804 0.982323
    outer loop
      vertex 32.686 36.5911 1.68373
      vertex 32.1244 35.4947 1.89839
      vertex 32.4492 35.3292 1.87013
    endloop
  endfacet
  facet normal 0.145476 0.117804 0.982323
    outer loop
      vertex 32.4492 35.3292 1.87013
      vertex 33.3403 35.7832 1.68373
      vertex 32.686 36.5911 1.68373
    endloop
  endfacet
  facet normal 0.337388 0.662162 0.669112
    outer loop
      vertex 32.255 38.9114 0.395058
      vertex 32.0811 38.2624 1.12503
      vertex 33.4674 37.556 1.12503
    endloop
  endfacet
  facet normal 0.00252161 0.0481245 0.998838
    outer loop
      vertex 29.8006 34.5503 2.03555
      vertex 24.5415 30 2.26806
      vertex 29.9084 34.3389 2.04547
    endloop
  endfacet
  facet normal 0.00252212 0.0481239 0.998838
    outer loop
      vertex 24.5415 30 2.26806
      vertex 29.8006 34.5503 2.03555
      vertex 24.2615 30 2.26877
    endloop
  endfacet
  facet normal 0.0388944 0.742143 0.669112
    outer loop
      vertex 32.255 38.9114 0.395058
      vertex 30.4223 39.0074 0.395058
      vertex 30.5274 38.3438 1.12503
    endloop
  endfacet
  facet normal -0.492122 0.552185 0.672985
    outer loop
      vertex 28.7089 38.3497 0.395058
      vertex 21.2436 30 1.78702
      vertex 29.0749 37.7862 1.12503
    endloop
  endfacet
  facet normal -0.492122 0.552185 0.672985
    outer loop
      vertex 21.2436 30 1.78702
      vertex 28.7089 38.3497 0.395058
      vertex 20.6553 30 1.35677
    endloop
  endfacet
  facet normal -0.0670821 0.174759 0.982323
    outer loop
      vertex 30.7216 37.1175 1.68373
      vertex 30.6611 35.9128 1.89391
      vertex 30.878 36.1298 1.87013
    endloop
  endfacet
  facet normal 0.0160244 0.0314501 0.999377
    outer loop
      vertex 29.9084 34.3389 2.04547
      vertex 24.9275 30 2.26187
      vertex 30.053 34.055 2.05208
    endloop
  endfacet
  facet normal 0.0160245 0.03145 0.999377
    outer loop
      vertex 24.9275 30 2.26187
      vertex 29.9084 34.3389 2.04547
      vertex 24.5415 30 2.26806
    endloop
  endfacet
  facet normal 0.324804 0.263021 0.908472
    outer loop
      vertex 33.4674 37.556 1.12503
      vertex 33.3403 35.7832 1.68373
      vertex 34.4465 36.3469 1.12503
    endloop
  endfacet
  facet normal 0.0523363 0.99863 -0
    outer loop
      vertex 32.255 38.9114 -0.00432968
      vertex 30.4223 39.0074 0.395058
      vertex 32.255 38.9114 0.395058
    endloop
  endfacet
  facet normal 0.0523363 0.99863 0
    outer loop
      vertex 30.4223 39.0074 0.395058
      vertex 32.255 38.9114 -0.00432968
      vertex 30.4223 39.0074 -0.00432968
    endloop
  endfacet
  facet normal 0.577544 0.467686 0.669113
    outer loop
      vertex 35.0452 36.6519 0.395058
      vertex 33.8902 38.0782 0.395058
      vertex 34.4465 36.3469 1.12503
    endloop
  endfacet
  facet normal 0.577545 0.467686 0.669112
    outer loop
      vertex 33.8902 38.0782 0.395058
      vertex 33.4674 37.556 1.12503
      vertex 34.4465 36.3469 1.12503
    endloop
  endfacet
  facet normal 0.180813 0.0484501 0.982323
    outer loop
      vertex 32.4492 35.3292 1.87013
      vertex 32.4012 35.0262 1.89391
      vertex 33.3403 35.7832 1.68373
    endloop
  endfacet
  facet normal 0.0218741 0.417373 0.908472
    outer loop
      vertex 32.0811 38.2624 1.12503
      vertex 30.7216 37.1175 1.68373
      vertex 31.7598 37.0631 1.68373
    endloop
  endfacet
  facet normal 0.021874 0.417373 0.908472
    outer loop
      vertex 32.0811 38.2624 1.12503
      vertex 30.5274 38.3438 1.12503
      vertex 30.7216 37.1175 1.68373
    endloop
  endfacet
  facet normal -0.0670837 0.174759 0.982323
    outer loop
      vertex 29.7511 36.745 1.68373
      vertex 30.6611 35.9128 1.89391
      vertex 30.7216 37.1175 1.68373
    endloop
  endfacet
  facet normal -0.0670846 0.174758 0.982323
    outer loop
      vertex 30.6611 35.9128 1.89391
      vertex 29.7511 36.745 1.68373
      vertex 30.437 35.6887 1.91848
    endloop
  endfacet
  facet normal -0.0367371 0.0957041 0.994732
    outer loop
      vertex 29.7491 34.6515 2.02391
      vertex 24.2615 30 2.26877
      vertex 29.8006 34.5503 2.03555
    endloop
  endfacet
  facet normal -0.036736 0.0957028 0.994732
    outer loop
      vertex 24.2615 30 2.26877
      vertex 29.7491 34.6515 2.02391
      vertex 24.1297 30 2.2639
    endloop
  endfacet
  facet normal 0.777146 0.62932 0
    outer loop
      vertex 35.0452 36.6519 0.395058
      vertex 33.8902 38.0782 -0.00432968
      vertex 33.8902 38.0782 0.395058
    endloop
  endfacet
  facet normal 0.777146 0.62932 0
    outer loop
      vertex 33.8902 38.0782 -0.00432968
      vertex 35.0452 36.6519 0.395058
      vertex 35.0452 36.6519 -0.00432968
    endloop
  endfacet
  facet normal 0.145476 0.117804 0.982323
    outer loop
      vertex 32.686 36.5911 1.68373
      vertex 31.8935 35.6124 1.91848
      vertex 32.1244 35.4947 1.89839
    endloop
  endfacet
  facet normal 0.025699 0.0208124 0.999453
    outer loop
      vertex 30.4317 33.3117 2.05984
      vertex 28.232 30 2.18537
      vertex 30.6621 33.3482 2.05316
    endloop
  endfacet
  facet normal 0.025701 0.020811 0.999453
    outer loop
      vertex 30.349 33.4741 2.05859
      vertex 28.232 30 2.18537
      vertex 30.4317 33.3117 2.05984
    endloop
  endfacet
  facet normal 0.0257 0.0208116 0.999453
    outer loop
      vertex 28.232 30 2.18537
      vertex 30.349 33.4741 2.05859
      vertex 27.8858 30 2.19427
    endloop
  endfacet
  facet normal -0.266326 0.693801 0.669111
    outer loop
      vertex 30.4223 39.0074 0.395058
      vertex 29.0749 37.7862 1.12503
      vertex 30.5274 38.3438 1.12503
    endloop
  endfacet
  facet normal -0.149778 0.390186 0.908472
    outer loop
      vertex 30.5274 38.3438 1.12503
      vertex 29.0749 37.7862 1.12503
      vertex 30.7216 37.1175 1.68373
    endloop
  endfacet
  facet normal 0.00979703 0.186935 0.982323
    outer loop
      vertex 31.1514 35.9905 1.89391
      vertex 30.7216 37.1175 1.68373
      vertex 30.878 36.1298 1.87013
    endloop
  endfacet
  facet normal 0.0097962 0.186936 0.982323
    outer loop
      vertex 31.7598 37.0631 1.68373
      vertex 31.1514 35.9905 1.89391
      vertex 31.4338 35.8466 1.91848
    endloop
  endfacet
  facet normal 0.0097971 0.186935 0.982323
    outer loop
      vertex 31.1514 35.9905 1.89391
      vertex 31.7598 37.0631 1.68373
      vertex 30.7216 37.1175 1.68373
    endloop
  endfacet
  facet normal 0.0388948 0.742143 0.669112
    outer loop
      vertex 32.255 38.9114 0.395058
      vertex 30.5274 38.3438 1.12503
      vertex 32.0811 38.2624 1.12503
    endloop
  endfacet
  facet normal 0.189743 0.372392 0.908472
    outer loop
      vertex 33.4674 37.556 1.12503
      vertex 32.0811 38.2624 1.12503
      vertex 32.686 36.5911 1.68373
    endloop
  endfacet
  facet normal 0.337387 0.662161 0.669113
    outer loop
      vertex 33.8902 38.0782 0.395058
      vertex 32.255 38.9114 0.395058
      vertex 33.4674 37.556 1.12503
    endloop
  endfacet
  facet normal 0.453989 0.891007 -0
    outer loop
      vertex 33.8902 38.0782 -0.00432968
      vertex 32.255 38.9114 0.395058
      vertex 33.8902 38.0782 0.395058
    endloop
  endfacet
  facet normal 0.453989 0.891007 0
    outer loop
      vertex 32.255 38.9114 0.395058
      vertex 33.8902 38.0782 -0.00432968
      vertex 32.255 38.9114 -0.00432968
    endloop
  endfacet
  facet normal -0.266326 0.693801 0.669112
    outer loop
      vertex 30.4223 39.0074 0.395058
      vertex 28.7089 38.3497 0.395058
      vertex 29.0749 37.7862 1.12503
    endloop
  endfacet
  facet normal -0.987688 0.156434 3.18356e-07
    outer loop
      vertex 32.4492 35.3292 -0.00432968
      vertex 32.4012 35.0262 1.89391
      vertex 32.4492 35.3292 1.87013
    endloop
  endfacet
  facet normal -0.987689 0.156432 -1.896e-08
    outer loop
      vertex 32.4492 35.3292 -0.00432968
      vertex 32.3516 34.7132 1.91848
      vertex 32.4012 35.0262 1.89391
    endloop
  endfacet
  facet normal -0.987688 0.156438 2.07301e-06
    outer loop
      vertex 32.4492 35.3292 -0.00432968
      vertex 32.3073 34.4332 1.91848
      vertex 32.3516 34.7132 1.91848
    endloop
  endfacet
  facet normal -0.987688 0.156434 3.12704e-08
    outer loop
      vertex 32.1734 33.5876 -0.00432968
      vertex 32.3073 34.4332 1.91848
      vertex 32.4492 35.3292 -0.00432968
    endloop
  endfacet
  facet normal -0.987688 0.156437 -1.40549e-06
    outer loop
      vertex 32.3073 34.4332 1.91848
      vertex 32.1734 33.5876 -0.00432968
      vertex 32.2709 34.2036 1.91848
    endloop
  endfacet
  facet normal -0.987689 0.156433 0
    outer loop
      vertex 32.2709 34.2036 1.91848
      vertex 32.1734 33.5876 -0.00432968
      vertex 32.1734 33.5876 1.88275
    endloop
  endfacet
  facet normal 0.707106 -0.707108 0
    outer loop
      vertex 29.6312 34.8829 -0.00432968
      vertex 30.437 35.6887 1.91848
      vertex 29.6312 34.8829 1.97546
    endloop
  endfacet
  facet normal 0.707106 -0.707107 -2.48107e-07
    outer loop
      vertex 30.878 36.1298 -0.00432968
      vertex 30.437 35.6887 1.91848
      vertex 29.6312 34.8829 -0.00432968
    endloop
  endfacet
  facet normal 0.70711 -0.707104 1.4161e-06
    outer loop
      vertex 30.437 35.6887 1.91848
      vertex 30.878 36.1298 -0.00432968
      vertex 30.6611 35.9128 1.89391
    endloop
  endfacet
  facet normal 0.707104 -0.70711 0
    outer loop
      vertex 30.6611 35.9128 1.89391
      vertex 30.878 36.1298 -0.00432968
      vertex 30.878 36.1298 1.87013
    endloop
  endfacet
  facet normal -0.453998 -0.891003 3.02935e-06
    outer loop
      vertex 30.878 36.1298 -0.00432968
      vertex 31.6409 35.7411 1.91848
      vertex 31.4338 35.8466 1.91848
    endloop
  endfacet
  facet normal -0.453984 -0.89101 1.86088e-06
    outer loop
      vertex 31.6409 35.7411 1.91848
      vertex 32.4492 35.3292 -0.00432968
      vertex 31.8935 35.6124 1.91848
    endloop
  endfacet
  facet normal -0.45399 -0.891007 9.33315e-08
    outer loop
      vertex 30.878 36.1298 -0.00432968
      vertex 31.4338 35.8466 1.91848
      vertex 31.1514 35.9905 1.89391
    endloop
  endfacet
  facet normal -0.45399 -0.891007 -9.91398e-07
    outer loop
      vertex 31.6409 35.7411 1.91848
      vertex 30.878 36.1298 -0.00432968
      vertex 32.4492 35.3292 -0.00432968
    endloop
  endfacet
  facet normal -0.453989 -0.891007 0
    outer loop
      vertex 30.878 36.1298 -0.00432968
      vertex 31.1514 35.9905 1.89391
      vertex 30.878 36.1298 1.87013
    endloop
  endfacet
  facet normal -0.453989 -0.891007 1.12538e-07
    outer loop
      vertex 31.8935 35.6124 1.91848
      vertex 32.4492 35.3292 -0.00432968
      vertex 32.1244 35.4947 1.89839
    endloop
  endfacet
  facet normal -0.45399 -0.891007 0
    outer loop
      vertex 32.1244 35.4947 1.89839
      vertex 32.4492 35.3292 -0.00432968
      vertex 32.4492 35.3292 1.87013
    endloop
  endfacet
  facet normal -0.15643 0.987689 -1.35909e-06
    outer loop
      vertex 30.4317 33.3117 -0.00432968
      vertex 30.6621 33.3482 2.05316
      vertex 31.0379 33.4077 2.03759
    endloop
  endfacet
  facet normal -0.156439 0.987688 1.34999e-06
    outer loop
      vertex 30.4317 33.3117 -0.00432968
      vertex 31.0379 33.4077 2.03759
      vertex 31.2668 33.444 2.02222
    endloop
  endfacet
  facet normal -0.156436 0.987688 0
    outer loop
      vertex 32.1734 33.5876 -0.00432968
      vertex 31.2668 33.444 2.02222
      vertex 32.1734 33.5876 1.88275
    endloop
  endfacet
  facet normal -0.156436 0.987688 9.08269e-08
    outer loop
      vertex 31.2668 33.444 2.02222
      vertex 32.1734 33.5876 -0.00432968
      vertex 30.4317 33.3117 -0.00432968
    endloop
  endfacet
  facet normal -0.156442 0.987687 0
    outer loop
      vertex 30.6621 33.3482 2.05316
      vertex 30.4317 33.3117 -0.00432968
      vertex 30.4317 33.3117 2.05984
    endloop
  endfacet
  facet normal 0.891008 0.453988 0
    outer loop
      vertex 29.7491 34.6515 2.02391
      vertex 29.6312 34.8829 -0.00432968
      vertex 29.6312 34.8829 1.97546
    endloop
  endfacet
  facet normal 0.891003 0.453998 1.41747e-06
    outer loop
      vertex 29.8006 34.5503 2.03555
      vertex 29.6312 34.8829 -0.00432968
      vertex 29.7491 34.6515 2.02391
    endloop
  endfacet
  facet normal 0.891006 0.453991 1.22634e-07
    outer loop
      vertex 29.9084 34.3389 2.04547
      vertex 29.6312 34.8829 -0.00432968
      vertex 29.8006 34.5503 2.03555
    endloop
  endfacet
  facet normal 0.891008 0.453987 -1.15662e-06
    outer loop
      vertex 30.053 34.055 2.05208
      vertex 29.6312 34.8829 -0.00432968
      vertex 29.9084 34.3389 2.04547
    endloop
  endfacet
  facet normal 0.891005 0.453993 -9.78382e-07
    outer loop
      vertex 30.4317 33.3117 -0.00432968
      vertex 30.053 34.055 2.05208
      vertex 30.349 33.4741 2.05859
    endloop
  endfacet
  facet normal 0.891011 0.453983 -0
    outer loop
      vertex 30.4317 33.3117 -0.00432968
      vertex 30.349 33.4741 2.05859
      vertex 30.4317 33.3117 2.05984
    endloop
  endfacet
  facet normal 0.891007 0.45399 1.60316e-07
    outer loop
      vertex 30.053 34.055 2.05208
      vertex 30.4317 33.3117 -0.00432968
      vertex 29.6312 34.8829 -0.00432968
    endloop
  endfacet
  facet normal -1 0 0
    outer loop
      vertex 0 30 0
      vertex 0 23.4985 0.00691069
      vertex 0 30 2.9399
    endloop
  endfacet
  facet normal -1 0 0
    outer loop
      vertex 0 23.493 0
      vertex 0 23.4985 0.00691069
      vertex 0 30 0
    endloop
  endfacet
  facet normal -1 0 0
    outer loop
      vertex 0 23.4985 0.00691069
      vertex 0 23.493 0
      vertex 0 23.4971 0.00516323
    endloop
  endfacet
  facet normal 0 0 1
    outer loop
      vertex 30 30 30
      vertex 23.5 23.5 30
      vertex 30 21.1974 30
    endloop
  endfacet
  facet normal -0 0 1
    outer loop
      vertex 21.1971 30 30
      vertex 23.5 23.5 30
      vertex 30 30 30
    endloop
  endfacet
  facet normal 0 0 1
    outer loop
      vertex 23.5 23.5 30
      vertex 21.1971 30 30
      vertex 23.4941 23.5 30
    endloop
  endfacet
  facet normal 0 0 1
    outer loop
      vertex 30 21.1974 30
      vertex 23.5 23.5 30
      vertex 23.5 23.4944 30
    endloop
  endfacet
  facet normal 1 -0 0
    outer loop
      vertex 30 24.724 19.6035
      vertex 30 30 1.94313
      vertex 30 30 30
    endloop
  endfacet
  facet normal 1 -0 0
    outer loop
      vertex 30 24.1136 17.725
      vertex 30 30 1.94313
      vertex 30 24.724 19.6035
    endloop
  endfacet
  facet normal 1 -0 0
    outer loop
      vertex 30 22.792 16.2572
      vertex 30 30 1.94313
      vertex 30 24.1136 17.725
    endloop
  endfacet
  facet normal 1 0 0
    outer loop
      vertex 30 30 1.94313
      vertex 30 22.792 16.2572
      vertex 30 29.5894 1.90845
    endloop
  endfacet
  facet normal 1 0 0
    outer loop
      vertex 30 29.429 1.87695
      vertex 30 22.792 16.2572
      vertex 30 27.853 1.46878
    endloop
  endfacet
  facet normal 1 0 0
    outer loop
      vertex 30 29.5894 1.90845
      vertex 30 22.792 16.2572
      vertex 30 29.429 1.87695
    endloop
  endfacet
  facet normal 1 0 0
    outer loop
      vertex 30 30 30
      vertex 30 24.5175 21.5678
      vertex 30 24.724 19.6035
    endloop
  endfacet
  facet normal 1 0 0
    outer loop
      vertex 30 30 30
      vertex 30 23.5299 23.2784
      vertex 30 24.5175 21.5678
    endloop
  endfacet
  facet normal 1 0 0
    outer loop
      vertex 30 30 30
      vertex 30 21.932 24.4393
      vertex 30 23.5299 23.2784
    endloop
  endfacet
  facet normal 1 -0 0
    outer loop
      vertex 30 21.1974 30
      vertex 30 21.932 24.4393
      vertex 30 30 30
    endloop
  endfacet
  facet normal 1 0 0
    outer loop
      vertex 30 21.1974 30
      vertex 30 20 24.85
      vertex 30 21.932 24.4393
    endloop
  endfacet
  facet normal 1 0 0
    outer loop
      vertex 30 21.1974 30
      vertex 30 18.068 24.4393
      vertex 30 20 24.85
    endloop
  endfacet
  facet normal 1 0 0
    outer loop
      vertex 30 21.1974 30
      vertex 30 16.4701 23.2784
      vertex 30 18.068 24.4393
    endloop
  endfacet
  facet normal 1 0 0
    outer loop
      vertex 30 15.4825 21.5678
      vertex 30 0 2.93945
      vertex 30 15.276 19.6035
    endloop
  endfacet
  facet normal 1 0 0
    outer loop
      vertex 30 16.4701 23.2784
      vertex 30 0 2.93945
      vertex 30 15.4825 21.5678
    endloop
  endfacet
  facet normal 1 0 0
    outer loop
      vertex 30 0 2.93945
      vertex 30 16.4701 23.2784
      vertex 30 21.1974 30
    endloop
  endfacet
  facet normal 1 -0 0
    outer loop
      vertex 30 20.9876 15.4538
      vertex 30 27.853 1.46878
      vertex 30 22.792 16.2572
    endloop
  endfacet
  facet normal 1 0 0
    outer loop
      vertex 30 27.853 1.46878
      vertex 30 20.9876 15.4538
      vertex 30 27.0551 0.920825
    endloop
  endfacet
  facet normal 1 -0 0
    outer loop
      vertex 30 19.0124 15.4538
      vertex 30 27.0551 0.920825
      vertex 30 20.9876 15.4538
    endloop
  endfacet
  facet normal 1 -0 0
    outer loop
      vertex 30 0 2.93945
      vertex 30 27.0551 0.920825
      vertex 30 19.0124 15.4538
    endloop
  endfacet
  facet normal 1 0 0
    outer loop
      vertex 30 0 2.93945
      vertex 30 19.0124 15.4538
      vertex 30 17.208 16.2572
    endloop
  endfacet
  facet normal 1 0 0
    outer loop
      vertex 30 0 2.93945
      vertex 30 17.208 16.2572
      vertex 30 15.8864 17.725
    endloop
  endfacet
  facet normal 1 0 0
    outer loop
      vertex 30 0 2.93945
      vertex 30 15.8864 17.725
      vertex 30 15.276 19.6035
    endloop
  endfacet
  facet normal 1 0 0
    outer loop
      vertex 30 0 0
      vertex 30 27.0551 0.920825
      vertex 30 0 2.93945
    endloop
  endfacet
  facet normal 1 0 0
    outer loop
      vertex 30 27.0551 0.920825
      vertex 30 0 0
      vertex 30 27.0551 0
    endloop
  endfacet
  facet normal 0 1 -0
    outer loop
      vertex 24.9275 30 2.26187
      vertex 21.1971 30 30
      vertex 30 30 30
    endloop
  endfacet
  facet normal 0 1 0
    outer loop
      vertex 21.1971 30 30
      vertex 24.2615 30 2.26877
      vertex 24.1297 30 2.2639
    endloop
  endfacet
  facet normal 0 1 0
    outer loop
      vertex 21.1971 30 30
      vertex 24.5415 30 2.26806
      vertex 24.2615 30 2.26877
    endloop
  endfacet
  facet normal 0 1 0
    outer loop
      vertex 21.1971 30 30
      vertex 24.9275 30 2.26187
      vertex 24.5415 30 2.26806
    endloop
  endfacet
  facet normal 0 1 0
    outer loop
      vertex 30 30 30
      vertex 27.8858 30 2.19427
      vertex 24.9275 30 2.26187
    endloop
  endfacet
  facet normal 0 1 0
    outer loop
      vertex 30 30 30
      vertex 28.232 30 2.18537
      vertex 27.8858 30 2.19427
    endloop
  endfacet
  facet normal 0 1 0
    outer loop
      vertex 30 30 30
      vertex 28.5174 30 2.17403
      vertex 28.232 30 2.18537
    endloop
  endfacet
  facet normal 0 1 0
    outer loop
      vertex 30 30 30
      vertex 28.6906 30 2.1621
      vertex 28.5174 30 2.17403
    endloop
  endfacet
  facet normal -0 1 0
    outer loop
      vertex 28.6906 30 2.1621
      vertex 30 30 30
      vertex 30 30 1.94313
    endloop
  endfacet
  facet normal 0 1 0
    outer loop
      vertex 21.1971 30 30
      vertex 24.1297 30 2.2639
      vertex 22.4139 30 2.10626
    endloop
  endfacet
  facet normal 0 1 0
    outer loop
      vertex 21.1971 30 30
      vertex 22.4139 30 2.10626
      vertex 21.2436 30 1.78702
    endloop
  endfacet
  facet normal 0 1 0
    outer loop
      vertex 21.1971 30 30
      vertex 21.2436 30 1.78702
      vertex 0 30 2.9399
    endloop
  endfacet
  facet normal 0 1 -0
    outer loop
      vertex 20.6553 30 1.35677
      vertex 0 30 2.9399
      vertex 21.2436 30 1.78702
    endloop
  endfacet
  facet normal 0 1 -0
    outer loop
      vertex 20.616 30 1.22908
      vertex 0 30 2.9399
      vertex 20.6553 30 1.35677
    endloop
  endfacet
  facet normal 0 1 0
    outer loop
      vertex 0 30 0
      vertex 20.616 30 1.22908
      vertex 20.616 30 0
    endloop
  endfacet
  facet normal 0 1 0
    outer loop
      vertex 20.616 30 1.22908
      vertex 0 30 0
      vertex 0 30 2.9399
    endloop
  endfacet
  facet normal 0 0 -1
    outer loop
      vertex 0 23.493 0
      vertex 7.8538 19.0124 0
      vertex 7.30595 16.1871 0
    endloop
  endfacet
  facet normal 0 0 -1
    outer loop
      vertex 7.30595 16.1871 0
      vertex 7.8538 19.0124 0
      vertex 8.54105 17.4688 0
    endloop
  endfacet
  facet normal 0 0 -1
    outer loop
      vertex 13.9678 24.5175 0
      vertex 20.616 30 0
      vertex 14.8451 24.011 0
    endloop
  endfacet
  facet normal 0 0 -1
    outer loop
      vertex 12.0035 24.724 0
      vertex 20.616 30 0
      vertex 13.9678 24.5175 0
    endloop
  endfacet
  facet normal 0 0 -1
    outer loop
      vertex 0 30 0
      vertex 12.0035 24.724 0
      vertex 10.125 24.1136 0
    endloop
  endfacet
  facet normal 0 0 -1
    outer loop
      vertex 7.8538 19.0124 0
      vertex 0 23.493 0
      vertex 7.8538 20.9876 0
    endloop
  endfacet
  facet normal 0 0 -1
    outer loop
      vertex 0 23.493 0
      vertex 8.65717 22.792 0
      vertex 7.8538 20.9876 0
    endloop
  endfacet
  facet normal 0 0 -1
    outer loop
      vertex 0 30 0
      vertex 8.65717 22.792 0
      vertex 0 23.493 0
    endloop
  endfacet
  facet normal 0 0 -1
    outer loop
      vertex 8.65717 22.792 0
      vertex 0 30 0
      vertex 10.125 24.1136 0
    endloop
  endfacet
  facet normal 0 0 -1
    outer loop
      vertex 12.0035 24.724 0
      vertex 0 30 0
      vertex 20.616 30 0
    endloop
  endfacet
  facet normal 0 0 -1
    outer loop
      vertex 30 0 0
      vertex 24.75 12.5 0
      vertex 30 27.0551 0
    endloop
  endfacet
  facet normal 0 0 -1
    outer loop
      vertex 30 0 0
      vertex 24.3393 10.568 0
      vertex 24.75 12.5 0
    endloop
  endfacet
  facet normal 0 0 -1
    outer loop
      vertex 23.1784 8.97006 0
      vertex 30 0 0
      vertex 23.493 0 0
    endloop
  endfacet
  facet normal 0 0 -1
    outer loop
      vertex 30 0 0
      vertex 23.1784 8.97006 0
      vertex 24.3393 10.568 0
    endloop
  endfacet
  facet normal 0 0 -1
    outer loop
      vertex 23.493 0 0
      vertex 21.4678 7.98248 0
      vertex 23.1784 8.97006 0
    endloop
  endfacet
  facet normal 0 0 -1
    outer loop
      vertex 23.493 0 0
      vertex 19.5035 7.77602 0
      vertex 21.4678 7.98248 0
    endloop
  endfacet
  facet normal 0 0 -1
    outer loop
      vertex 23.493 0 0
      vertex 17.625 8.38638 0
      vertex 19.5035 7.77602 0
    endloop
  endfacet
  facet normal 0 0 -1
    outer loop
      vertex 13.6792 9.81383 0
      vertex 17.625 8.38638 0
      vertex 23.493 0 0
    endloop
  endfacet
  facet normal -0 0 -1
    outer loop
      vertex 15.3538 11.5124 0
      vertex 13.6792 9.81383 0
      vertex 15.3538 11.5829 0
    endloop
  endfacet
  facet normal 0 0 -1
    outer loop
      vertex 16.1572 9.70802 0
      vertex 13.6792 9.81383 0
      vertex 15.3538 11.5124 0
    endloop
  endfacet
  facet normal 0 0 -1
    outer loop
      vertex 17.625 8.38638 0
      vertex 13.6792 9.81383 0
      vertex 16.1572 9.70802 0
    endloop
  endfacet
  facet normal 0 0 -1
    outer loop
      vertex 24.3393 14.432 0
      vertex 30 27.0551 0
      vertex 24.75 12.5 0
    endloop
  endfacet
  facet normal 0 0 -1
    outer loop
      vertex 23.1784 16.0299 0
      vertex 30 27.0551 0
      vertex 24.3393 14.432 0
    endloop
  endfacet
  facet normal 0 0 -1
    outer loop
      vertex 21.4678 17.0175 0
      vertex 30 27.0551 0
      vertex 23.1784 16.0299 0
    endloop
  endfacet
  facet normal 0 0 -1
    outer loop
      vertex 30 27.0551 0
      vertex 21.4678 17.0175 0
      vertex 20.586 17.1102 0
    endloop
  endfacet
  facet normal 0 -1 0
    outer loop
      vertex 23.493 0 0
      vertex 23.498 0 0.00620456
      vertex 23.496 0 0.00375098
    endloop
  endfacet
  facet normal 0 -1 -0
    outer loop
      vertex 23.498 0 0.00620456
      vertex 23.493 0 0
      vertex 30 0 0
    endloop
  endfacet
  facet normal 0 -1 0
    outer loop
      vertex 23.498 0 0.00620456
      vertex 30 0 0
      vertex 30 0 2.93945
    endloop
  endfacet
  facet normal -0.978148 -0.207912 0
    outer loop
      vertex 17.25 20 -0.00432968
      vertex 16.8393 21.932 3
      vertex 16.8393 21.932 -0.00432968
    endloop
  endfacet
  facet normal -0.978148 -0.207912 0
    outer loop
      vertex 16.8393 21.932 3
      vertex 17.25 20 -0.00432968
      vertex 17.25 20 3
    endloop
  endfacet
  facet normal 1 -0 0
    outer loop
      vertex 7.8538 19.0124 3
      vertex 7.8538 20.9876 0
      vertex 7.8538 20.9876 3
    endloop
  endfacet
  facet normal 1 0 0
    outer loop
      vertex 7.8538 20.9876 0
      vertex 7.8538 19.0124 3
      vertex 7.8538 19.0124 0
    endloop
  endfacet
  facet normal -0.10453 -0.994522 0
    outer loop
      vertex 12.0035 24.724 0
      vertex 13.9678 24.5175 3
      vertex 12.0035 24.724 3
    endloop
  endfacet
  facet normal -0.10453 -0.994522 -0
    outer loop
      vertex 13.9678 24.5175 3
      vertex 12.0035 24.724 0
      vertex 13.9678 24.5175 0
    endloop
  endfacet
  facet normal -0.809017 -0.587785 0
    outer loop
      vertex 16.8393 21.932 -0.00432968
      vertex 15.6784 23.5299 3
      vertex 15.6784 23.5299 -0.00432968
    endloop
  endfacet
  facet normal -0.809017 -0.587785 0
    outer loop
      vertex 15.6784 23.5299 3
      vertex 16.8393 21.932 -0.00432968
      vertex 16.8393 21.932 3
    endloop
  endfacet
  facet normal -0.104529 0.994522 0
    outer loop
      vertex 13.9678 15.4825 -0.00432968
      vertex 12.0035 15.276 3
      vertex 13.9678 15.4825 3
    endloop
  endfacet
  facet normal -0.104529 0.994522 0
    outer loop
      vertex 12.0035 15.276 3
      vertex 13.9678 15.4825 -0.00432968
      vertex 12.0035 15.276 -0.00432968
    endloop
  endfacet
  facet normal -0.5 -0.866025 0
    outer loop
      vertex 14.8451 24.011 0
      vertex 13.9678 24.5175 3
      vertex 13.9678 24.5175 0
    endloop
  endfacet
  facet normal -0.5 -0.866026 5.79377e-08
    outer loop
      vertex 13.9678 24.5175 3
      vertex 14.8451 24.011 0
      vertex 15.6784 23.5299 3
    endloop
  endfacet
  facet normal -0.5 -0.866026 0
    outer loop
      vertex 15.6784 23.5299 -0.00432968
      vertex 14.8451 24.011 0
      vertex 14.8451 24.011 -0.00432968
    endloop
  endfacet
  facet normal -0.5 -0.866026 0
    outer loop
      vertex 14.8451 24.011 0
      vertex 15.6784 23.5299 -0.00432968
      vertex 15.6784 23.5299 3
    endloop
  endfacet
  facet normal 0.66913 -0.743145 0
    outer loop
      vertex 8.65717 22.792 0
      vertex 10.125 24.1136 3
      vertex 8.65717 22.792 3
    endloop
  endfacet
  facet normal 0.66913 -0.743145 0
    outer loop
      vertex 10.125 24.1136 3
      vertex 8.65717 22.792 0
      vertex 10.125 24.1136 0
    endloop
  endfacet
  facet normal 0.913546 -0.406736 0
    outer loop
      vertex 7.8538 20.9876 3
      vertex 8.65717 22.792 0
      vertex 8.65717 22.792 3
    endloop
  endfacet
  facet normal 0.913546 -0.406736 0
    outer loop
      vertex 8.65717 22.792 0
      vertex 7.8538 20.9876 3
      vertex 7.8538 20.9876 0
    endloop
  endfacet
  facet normal 0 0 -1
    outer loop
      vertex 14.1 20 3
      vertex 17.25 20 3
      vertex 16.8393 18.068 3
    endloop
  endfacet
  facet normal 0 0 -1
    outer loop
      vertex 13.3 18.6144 3
      vertex 16.8393 18.068 3
      vertex 15.6784 16.4701 3
    endloop
  endfacet
  facet normal 0 0 -1
    outer loop
      vertex 17.25 20 3
      vertex 14.1 20 3
      vertex 16.8393 21.932 3
    endloop
  endfacet
  facet normal 0 0 -1
    outer loop
      vertex 13.3 21.3856 3
      vertex 16.8393 21.932 3
      vertex 14.1 20 3
    endloop
  endfacet
  facet normal 0 0 -1
    outer loop
      vertex 13.3 18.6144 3
      vertex 15.6784 16.4701 3
      vertex 13.9678 15.4825 3
    endloop
  endfacet
  facet normal 0 0 -1
    outer loop
      vertex 16.8393 18.068 3
      vertex 13.3 18.6144 3
      vertex 14.1 20 3
    endloop
  endfacet
  facet normal 0 0 -1
    outer loop
      vertex 12.0035 15.276 3
      vertex 13.3 18.6144 3
      vertex 13.9678 15.4825 3
    endloop
  endfacet
  facet normal 0 0 -1
    outer loop
      vertex 12.0035 15.276 3
      vertex 11.7 18.6144 3
      vertex 13.3 18.6144 3
    endloop
  endfacet
  facet normal 0 0 -1
    outer loop
      vertex 10.125 15.8864 3
      vertex 11.7 18.6144 3
      vertex 12.0035 15.276 3
    endloop
  endfacet
  facet normal 0 0 -1
    outer loop
      vertex 8.65717 17.208 3
      vertex 11.7 18.6144 3
      vertex 10.125 15.8864 3
    endloop
  endfacet
  facet normal -0 0 -1
    outer loop
      vertex 11.7 18.6144 3
      vertex 8.65717 17.208 3
      vertex 10.9 20 3
    endloop
  endfacet
  facet normal 0 0 -1
    outer loop
      vertex 7.8538 19.0124 3
      vertex 10.9 20 3
      vertex 8.65717 17.208 3
    endloop
  endfacet
  facet normal 0 0 -1
    outer loop
      vertex 10.9 20 3
      vertex 8.65717 22.792 3
      vertex 10.125 24.1136 3
    endloop
  endfacet
  facet normal 0 0 -1
    outer loop
      vertex 7.8538 20.9876 3
      vertex 10.9 20 3
      vertex 7.8538 19.0124 3
    endloop
  endfacet
  facet normal 0 0 -1
    outer loop
      vertex 10.9 20 3
      vertex 7.8538 20.9876 3
      vertex 8.65717 22.792 3
    endloop
  endfacet
  facet normal -0 0 -1
    outer loop
      vertex 16.8393 21.932 3
      vertex 13.3 21.3856 3
      vertex 15.6784 23.5299 3
    endloop
  endfacet
  facet normal -0 0 -1
    outer loop
      vertex 15.6784 23.5299 3
      vertex 13.3 21.3856 3
      vertex 13.9678 24.5175 3
    endloop
  endfacet
  facet normal 0 0 -1
    outer loop
      vertex 13.3 21.3856 3
      vertex 12.0035 24.724 3
      vertex 13.9678 24.5175 3
    endloop
  endfacet
  facet normal 0 0 -1
    outer loop
      vertex 11.7 21.3856 3
      vertex 12.0035 24.724 3
      vertex 13.3 21.3856 3
    endloop
  endfacet
  facet normal 0 0 -1
    outer loop
      vertex 10.125 24.1136 3
      vertex 11.7 21.3856 3
      vertex 10.9 20 3
    endloop
  endfacet
  facet normal 0 0 -1
    outer loop
      vertex 11.7 21.3856 3
      vertex 10.125 24.1136 3
      vertex 12.0035 24.724 3
    endloop
  endfacet
  facet normal 0.309017 -0.951056 0
    outer loop
      vertex 10.125 24.1136 0
      vertex 12.0035 24.724 3
      vertex 10.125 24.1136 3
    endloop
  endfacet
  facet normal 0.309017 -0.951056 0
    outer loop
      vertex 12.0035 24.724 3
      vertex 10.125 24.1136 0
      vertex 12.0035 24.724 0
    endloop
  endfacet
  facet normal -0.978148 0.207912 0
    outer loop
      vertex 16.8393 18.068 -0.00432968
      vertex 17.25 20 3
      vertex 17.25 20 -0.00432968
    endloop
  endfacet
  facet normal -0.978148 0.207912 0
    outer loop
      vertex 17.25 20 3
      vertex 16.8393 18.068 -0.00432968
      vertex 16.8393 18.068 3
    endloop
  endfacet
  facet normal -0.5 0.866025 0
    outer loop
      vertex 15.6784 16.4701 -0.00432968
      vertex 13.9678 15.4825 3
      vertex 15.6784 16.4701 3
    endloop
  endfacet
  facet normal -0.5 0.866025 0
    outer loop
      vertex 13.9678 15.4825 3
      vertex 15.6784 16.4701 -0.00432968
      vertex 13.9678 15.4825 -0.00432968
    endloop
  endfacet
  facet normal -0.809017 0.587785 0
    outer loop
      vertex 15.6784 16.4701 -0.00432968
      vertex 16.8393 18.068 3
      vertex 16.8393 18.068 -0.00432968
    endloop
  endfacet
  facet normal -0.809017 0.587785 0
    outer loop
      vertex 16.8393 18.068 3
      vertex 15.6784 16.4701 -0.00432968
      vertex 15.6784 16.4701 3
    endloop
  endfacet
  facet normal 0.309017 0.951056 -0
    outer loop
      vertex 12.0035 15.276 -0.00432968
      vertex 10.125 15.8864 3
      vertex 12.0035 15.276 3
    endloop
  endfacet
  facet normal 0.309017 0.951056 0
    outer loop
      vertex 10.125 15.8864 3
      vertex 12.0035 15.276 -0.00432968
      vertex 10.125 15.8864 -0.00432968
    endloop
  endfacet
  facet normal 0.66913 0.743145 -0
    outer loop
      vertex 10.125 15.8864 -0.00432968
      vertex 8.65717 17.208 3
      vertex 10.125 15.8864 3
    endloop
  endfacet
  facet normal 0.66913 0.743145 0
    outer loop
      vertex 8.65717 17.208 3
      vertex 10.125 15.8864 -0.00432968
      vertex 8.65717 17.208 -0.00432968
    endloop
  endfacet
  facet normal 0.913546 0.406736 0
    outer loop
      vertex 7.8538 19.0124 3
      vertex 8.54105 17.4688 0
      vertex 7.8538 19.0124 0
    endloop
  endfacet
  facet normal 0.913546 0.406736 -3.86607e-09
    outer loop
      vertex 8.65717 17.208 3
      vertex 8.54105 17.4688 0
      vertex 7.8538 19.0124 3
    endloop
  endfacet
  facet normal 0.913546 0.406736 -0
    outer loop
      vertex 8.65717 17.208 -0.00432968
      vertex 8.54105 17.4688 0
      vertex 8.65717 17.208 3
    endloop
  endfacet
  facet normal 0.913546 0.406736 0
    outer loop
      vertex 8.54105 17.4688 0
      vertex 8.65717 17.208 -0.00432968
      vertex 8.54105 17.4688 -0.00432968
    endloop
  endfacet
  facet normal -0.866025 -0.5 0
    outer loop
      vertex 14.1 20 3
      vertex 13.3 21.3856 6.5
      vertex 13.3 21.3856 3
    endloop
  endfacet
  facet normal -0.866025 -0.5 0
    outer loop
      vertex 13.3 21.3856 6.5
      vertex 14.1 20 3
      vertex 14.1 20 6.5
    endloop
  endfacet
  facet normal 0.866025 -0.5 0
    outer loop
      vertex 10.9 20 6.5
      vertex 11.7 21.3856 3
      vertex 11.7 21.3856 6.5
    endloop
  endfacet
  facet normal 0.866025 -0.5 0
    outer loop
      vertex 11.7 21.3856 3
      vertex 10.9 20 6.5
      vertex 10.9 20 3
    endloop
  endfacet
  facet normal 0 -1 0
    outer loop
      vertex 11.7 21.3856 3
      vertex 13.3 21.3856 6.5
      vertex 11.7 21.3856 6.5
    endloop
  endfacet
  facet normal 0 -1 -0
    outer loop
      vertex 13.3 21.3856 6.5
      vertex 11.7 21.3856 3
      vertex 13.3 21.3856 3
    endloop
  endfacet
  facet normal 0.866025 0.5 0
    outer loop
      vertex 11.7 18.6144 6.5
      vertex 10.9 20 3
      vertex 10.9 20 6.5
    endloop
  endfacet
  facet normal 0.866025 0.5 0
    outer loop
      vertex 10.9 20 3
      vertex 11.7 18.6144 6.5
      vertex 11.7 18.6144 3
    endloop
  endfacet
  facet normal -0.866025 0.5 0
    outer loop
      vertex 13.3 18.6144 3
      vertex 14.1 20 6.5
      vertex 14.1 20 3
    endloop
  endfacet
  facet normal -0.866025 0.5 0
    outer loop
      vertex 14.1 20 6.5
      vertex 13.3 18.6144 3
      vertex 13.3 18.6144 6.5
    endloop
  endfacet
  facet normal 0 1 -0
    outer loop
      vertex 13.3 18.6144 3
      vertex 11.7 18.6144 6.5
      vertex 13.3 18.6144 6.5
    endloop
  endfacet
  facet normal 0 1 0
    outer loop
      vertex 11.7 18.6144 6.5
      vertex 13.3 18.6144 3
      vertex 11.7 18.6144 3
    endloop
  endfacet
  facet normal -0.978148 -0.207912 0
    outer loop
      vertex 24.75 12.5 0
      vertex 24.3393 14.432 3
      vertex 24.3393 14.432 0
    endloop
  endfacet
  facet normal -0.978148 -0.207912 0
    outer loop
      vertex 24.3393 14.432 3
      vertex 24.75 12.5 0
      vertex 24.75 12.5 3
    endloop
  endfacet
  facet normal 1 0 0
    outer loop
      vertex 15.3538 13.4876 3
      vertex 15.3538 11.5829 0
      vertex 15.3538 13.4876 -0.00432968
    endloop
  endfacet
  facet normal 1 -0 0
    outer loop
      vertex 15.3538 11.5124 3
      vertex 15.3538 11.5829 0
      vertex 15.3538 13.4876 3
    endloop
  endfacet
  facet normal 1 0 0
    outer loop
      vertex 15.3538 11.5829 0
      vertex 15.3538 11.5124 3
      vertex 15.3538 11.5124 0
    endloop
  endfacet
  facet normal 1 0 0
    outer loop
      vertex 15.3538 13.4876 -0.00432968
      vertex 15.3538 11.5829 0
      vertex 15.3538 11.5829 -0.00432968
    endloop
  endfacet
  facet normal -0.10453 -0.994522 -3.43737e-07
    outer loop
      vertex 19.5035 17.224 3
      vertex 20.586 17.1102 0
      vertex 21.4678 17.0175 3
    endloop
  endfacet
  facet normal -0.104529 -0.994522 0
    outer loop
      vertex 19.5035 17.224 -0.00432968
      vertex 20.586 17.1102 0
      vertex 19.5035 17.224 3
    endloop
  endfacet
  facet normal -0.104529 -0.994522 -0
    outer loop
      vertex 20.586 17.1102 0
      vertex 19.5035 17.224 -0.00432968
      vertex 20.586 17.1102 -0.00432968
    endloop
  endfacet
  facet normal -0.104531 -0.994522 -0
    outer loop
      vertex 21.4678 17.0175 3
      vertex 20.586 17.1102 0
      vertex 21.4678 17.0175 0
    endloop
  endfacet
  facet normal -0.809017 -0.587785 0
    outer loop
      vertex 24.3393 14.432 0
      vertex 23.1784 16.0299 3
      vertex 23.1784 16.0299 0
    endloop
  endfacet
  facet normal -0.809017 -0.587785 0
    outer loop
      vertex 23.1784 16.0299 3
      vertex 24.3393 14.432 0
      vertex 24.3393 14.432 3
    endloop
  endfacet
  facet normal -0.104529 0.994522 0
    outer loop
      vertex 21.4678 7.98248 0
      vertex 19.5035 7.77602 3
      vertex 21.4678 7.98248 3
    endloop
  endfacet
  facet normal -0.104529 0.994522 0
    outer loop
      vertex 19.5035 7.77602 3
      vertex 21.4678 7.98248 0
      vertex 19.5035 7.77602 0
    endloop
  endfacet
  facet normal -0.5 -0.866026 0
    outer loop
      vertex 21.4678 17.0175 0
      vertex 23.1784 16.0299 3
      vertex 21.4678 17.0175 3
    endloop
  endfacet
  facet normal -0.5 -0.866026 -0
    outer loop
      vertex 23.1784 16.0299 3
      vertex 21.4678 17.0175 0
      vertex 23.1784 16.0299 0
    endloop
  endfacet
  facet normal 0.669131 -0.743145 0
    outer loop
      vertex 16.1572 15.292 -0.00432968
      vertex 17.625 16.6136 3
      vertex 16.1572 15.292 3
    endloop
  endfacet
  facet normal 0.669131 -0.743145 0
    outer loop
      vertex 17.625 16.6136 3
      vertex 16.1572 15.292 -0.00432968
      vertex 17.625 16.6136 -0.00432968
    endloop
  endfacet
  facet normal 0.913546 -0.406736 0
    outer loop
      vertex 15.3538 13.4876 3
      vertex 16.1572 15.292 -0.00432968
      vertex 16.1572 15.292 3
    endloop
  endfacet
  facet normal 0.913546 -0.406736 0
    outer loop
      vertex 16.1572 15.292 -0.00432968
      vertex 15.3538 13.4876 3
      vertex 15.3538 13.4876 -0.00432968
    endloop
  endfacet
  facet normal 0 0 -1
    outer loop
      vertex 21.6 12.5 3
      vertex 24.75 12.5 3
      vertex 24.3393 10.568 3
    endloop
  endfacet
  facet normal 0 0 -1
    outer loop
      vertex 20.8 11.1144 3
      vertex 24.3393 10.568 3
      vertex 23.1784 8.97006 3
    endloop
  endfacet
  facet normal 0 0 -1
    outer loop
      vertex 24.75 12.5 3
      vertex 21.6 12.5 3
      vertex 24.3393 14.432 3
    endloop
  endfacet
  facet normal 0 0 -1
    outer loop
      vertex 20.8 13.8856 3
      vertex 24.3393 14.432 3
      vertex 21.6 12.5 3
    endloop
  endfacet
  facet normal 0 0 -1
    outer loop
      vertex 20.8 11.1144 3
      vertex 23.1784 8.97006 3
      vertex 21.4678 7.98248 3
    endloop
  endfacet
  facet normal 0 0 -1
    outer loop
      vertex 24.3393 10.568 3
      vertex 20.8 11.1144 3
      vertex 21.6 12.5 3
    endloop
  endfacet
  facet normal 0 0 -1
    outer loop
      vertex 19.5035 7.77602 3
      vertex 20.8 11.1144 3
      vertex 21.4678 7.98248 3
    endloop
  endfacet
  facet normal 0 0 -1
    outer loop
      vertex 19.5035 7.77602 3
      vertex 19.2 11.1144 3
      vertex 20.8 11.1144 3
    endloop
  endfacet
  facet normal 0 0 -1
    outer loop
      vertex 17.625 8.38638 3
      vertex 19.2 11.1144 3
      vertex 19.5035 7.77602 3
    endloop
  endfacet
  facet normal 0 0 -1
    outer loop
      vertex 16.1572 9.70802 3
      vertex 19.2 11.1144 3
      vertex 17.625 8.38638 3
    endloop
  endfacet
  facet normal -0 0 -1
    outer loop
      vertex 24.3393 14.432 3
      vertex 20.8 13.8856 3
      vertex 23.1784 16.0299 3
    endloop
  endfacet
  facet normal -0 0 -1
    outer loop
      vertex 23.1784 16.0299 3
      vertex 20.8 13.8856 3
      vertex 21.4678 17.0175 3
    endloop
  endfacet
  facet normal 0 0 -1
    outer loop
      vertex 20.8 13.8856 3
      vertex 19.5035 17.224 3
      vertex 21.4678 17.0175 3
    endloop
  endfacet
  facet normal 0 0 -1
    outer loop
      vertex 19.2 13.8856 3
      vertex 19.5035 17.224 3
      vertex 20.8 13.8856 3
    endloop
  endfacet
  facet normal 0 0 -1
    outer loop
      vertex 16.1572 15.292 3
      vertex 19.2 13.8856 3
      vertex 18.4 12.5 3
    endloop
  endfacet
  facet normal 0 0 -1
    outer loop
      vertex 19.2 13.8856 3
      vertex 17.625 16.6136 3
      vertex 19.5035 17.224 3
    endloop
  endfacet
  facet normal -0 0 -1
    outer loop
      vertex 19.2 11.1144 3
      vertex 16.1572 9.70802 3
      vertex 18.4 12.5 3
    endloop
  endfacet
  facet normal 0 0 -1
    outer loop
      vertex 15.3538 11.5124 3
      vertex 18.4 12.5 3
      vertex 16.1572 9.70802 3
    endloop
  endfacet
  facet normal 0 0 -1
    outer loop
      vertex 19.2 13.8856 3
      vertex 16.1572 15.292 3
      vertex 17.625 16.6136 3
    endloop
  endfacet
  facet normal 0 0 -1
    outer loop
      vertex 15.3538 13.4876 3
      vertex 18.4 12.5 3
      vertex 15.3538 11.5124 3
    endloop
  endfacet
  facet normal 0 0 -1
    outer loop
      vertex 18.4 12.5 3
      vertex 15.3538 13.4876 3
      vertex 16.1572 15.292 3
    endloop
  endfacet
  facet normal 0.309017 -0.951056 0
    outer loop
      vertex 17.625 16.6136 -0.00432968
      vertex 19.5035 17.224 3
      vertex 17.625 16.6136 3
    endloop
  endfacet
  facet normal 0.309017 -0.951056 0
    outer loop
      vertex 19.5035 17.224 3
      vertex 17.625 16.6136 -0.00432968
      vertex 19.5035 17.224 -0.00432968
    endloop
  endfacet
  facet normal -0.978148 0.207912 0
    outer loop
      vertex 24.3393 10.568 0
      vertex 24.75 12.5 3
      vertex 24.75 12.5 0
    endloop
  endfacet
  facet normal -0.978148 0.207912 0
    outer loop
      vertex 24.75 12.5 3
      vertex 24.3393 10.568 0
      vertex 24.3393 10.568 3
    endloop
  endfacet
  facet normal -0.5 0.866025 0
    outer loop
      vertex 23.1784 8.97006 0
      vertex 21.4678 7.98248 3
      vertex 23.1784 8.97006 3
    endloop
  endfacet
  facet normal -0.5 0.866025 0
    outer loop
      vertex 21.4678 7.98248 3
      vertex 23.1784 8.97006 0
      vertex 21.4678 7.98248 0
    endloop
  endfacet
  facet normal -0.809017 0.587785 0
    outer loop
      vertex 23.1784 8.97006 0
      vertex 24.3393 10.568 3
      vertex 24.3393 10.568 0
    endloop
  endfacet
  facet normal -0.809017 0.587785 0
    outer loop
      vertex 24.3393 10.568 3
      vertex 23.1784 8.97006 0
      vertex 23.1784 8.97006 3
    endloop
  endfacet
  facet normal 0.309017 0.951056 -0
    outer loop
      vertex 19.5035 7.77602 0
      vertex 17.625 8.38638 3
      vertex 19.5035 7.77602 3
    endloop
  endfacet
  facet normal 0.309017 0.951056 0
    outer loop
      vertex 17.625 8.38638 3
      vertex 19.5035 7.77602 0
      vertex 17.625 8.38638 0
    endloop
  endfacet
  facet normal 0.66913 0.743145 -0
    outer loop
      vertex 17.625 8.38638 0
      vertex 16.1572 9.70802 3
      vertex 17.625 8.38638 3
    endloop
  endfacet
  facet normal 0.66913 0.743145 0
    outer loop
      vertex 16.1572 9.70802 3
      vertex 17.625 8.38638 0
      vertex 16.1572 9.70802 0
    endloop
  endfacet
  facet normal 0.913546 0.406736 0
    outer loop
      vertex 16.1572 9.70802 3
      vertex 15.3538 11.5124 0
      vertex 15.3538 11.5124 3
    endloop
  endfacet
  facet normal 0.913546 0.406736 0
    outer loop
      vertex 15.3538 11.5124 0
      vertex 16.1572 9.70802 3
      vertex 16.1572 9.70802 0
    endloop
  endfacet
  facet normal -0.866026 -0.5 0
    outer loop
      vertex 21.6 12.5 3
      vertex 20.8 13.8856 6.5
      vertex 20.8 13.8856 3
    endloop
  endfacet
  facet normal -0.866026 -0.5 0
    outer loop
      vertex 20.8 13.8856 6.5
      vertex 21.6 12.5 3
      vertex 21.6 12.5 6.5
    endloop
  endfacet
  facet normal 0.866026 -0.5 0
    outer loop
      vertex 18.4 12.5 6.5
      vertex 19.2 13.8856 3
      vertex 19.2 13.8856 6.5
    endloop
  endfacet
  facet normal 0.866026 -0.5 0
    outer loop
      vertex 19.2 13.8856 3
      vertex 18.4 12.5 6.5
      vertex 18.4 12.5 3
    endloop
  endfacet
  facet normal 0 -1 0
    outer loop
      vertex 19.2 13.8856 3
      vertex 20.8 13.8856 6.5
      vertex 19.2 13.8856 6.5
    endloop
  endfacet
  facet normal 0 -1 -0
    outer loop
      vertex 20.8 13.8856 6.5
      vertex 19.2 13.8856 3
      vertex 20.8 13.8856 3
    endloop
  endfacet
  facet normal 0.866026 0.5 0
    outer loop
      vertex 19.2 11.1144 6.5
      vertex 18.4 12.5 3
      vertex 18.4 12.5 6.5
    endloop
  endfacet
  facet normal 0.866026 0.5 0
    outer loop
      vertex 18.4 12.5 3
      vertex 19.2 11.1144 6.5
      vertex 19.2 11.1144 3
    endloop
  endfacet
  facet normal -0.866026 0.5 0
    outer loop
      vertex 20.8 11.1144 3
      vertex 21.6 12.5 6.5
      vertex 21.6 12.5 3
    endloop
  endfacet
  facet normal -0.866026 0.5 0
    outer loop
      vertex 21.6 12.5 6.5
      vertex 20.8 11.1144 3
      vertex 20.8 11.1144 6.5
    endloop
  endfacet
  facet normal 0 1 -0
    outer loop
      vertex 20.8 11.1144 3
      vertex 19.2 11.1144 6.5
      vertex 20.8 11.1144 6.5
    endloop
  endfacet
  facet normal 0 1 0
    outer loop
      vertex 19.2 11.1144 6.5
      vertex 20.8 11.1144 3
      vertex 19.2 11.1144 3
    endloop
  endfacet
  facet normal 0 -0.207912 -0.978148
    outer loop
      vertex 26.5 20 24.85
      vertex 30 21.932 24.4393
      vertex 30 20 24.85
    endloop
  endfacet
  facet normal -0 -0.207912 -0.978148
    outer loop
      vertex 30 21.932 24.4393
      vertex 26.5 20 24.85
      vertex 26.5 21.932 24.4393
    endloop
  endfacet
  facet normal -0 0 1
    outer loop
      vertex 26.5 20.9876 15.4538
      vertex 30 19.0124 15.4538
      vertex 30 20.9876 15.4538
    endloop
  endfacet
  facet normal 0 0 1
    outer loop
      vertex 30 19.0124 15.4538
      vertex 26.5 20.9876 15.4538
      vertex 26.5 19.0124 15.4538
    endloop
  endfacet
  facet normal 0 -0.994522 -0.10453
    outer loop
      vertex 26.5 24.724 19.6035
      vertex 30 24.5175 21.5678
      vertex 26.5 24.5175 21.5678
    endloop
  endfacet
  facet normal 0 -0.994522 -0.10453
    outer loop
      vertex 30 24.5175 21.5678
      vertex 26.5 24.724 19.6035
      vertex 30 24.724 19.6035
    endloop
  endfacet
  facet normal 0 -0.587785 -0.809017
    outer loop
      vertex 26.5 21.932 24.4393
      vertex 30 23.5299 23.2784
      vertex 30 21.932 24.4393
    endloop
  endfacet
  facet normal -0 -0.587785 -0.809017
    outer loop
      vertex 30 23.5299 23.2784
      vertex 26.5 21.932 24.4393
      vertex 26.5 23.5299 23.2784
    endloop
  endfacet
  facet normal 0 0.994522 -0.104529
    outer loop
      vertex 30 15.276 19.6035
      vertex 27.4808 15.4825 21.5678
      vertex 30 15.4825 21.5678
    endloop
  endfacet
  facet normal 0 0.994522 -0.104529
    outer loop
      vertex 26.5 15.276 19.6035
      vertex 27.4808 15.4825 21.5678
      vertex 30 15.276 19.6035
    endloop
  endfacet
  facet normal 3.06689e-07 0.994522 -0.104529
    outer loop
      vertex 27.4808 15.4825 21.5678
      vertex 26.5 15.276 19.6035
      vertex 26.5 15.4288 21.0568
    endloop
  endfacet
  facet normal 0 -0.866026 -0.5
    outer loop
      vertex 26.5 24.5175 21.5678
      vertex 30 23.5299 23.2784
      vertex 26.5 23.5299 23.2784
    endloop
  endfacet
  facet normal 0 -0.866026 -0.5
    outer loop
      vertex 30 23.5299 23.2784
      vertex 26.5 24.5175 21.5678
      vertex 30 24.5175 21.5678
    endloop
  endfacet
  facet normal 0 -0.743145 0.66913
    outer loop
      vertex 26.5 22.792 16.2572
      vertex 30 24.1136 17.725
      vertex 26.5 24.1136 17.725
    endloop
  endfacet
  facet normal 0 -0.743145 0.66913
    outer loop
      vertex 30 24.1136 17.725
      vertex 26.5 22.792 16.2572
      vertex 30 22.792 16.2572
    endloop
  endfacet
  facet normal 0 -0.406736 0.913546
    outer loop
      vertex 26.5 22.792 16.2572
      vertex 30 20.9876 15.4538
      vertex 30 22.792 16.2572
    endloop
  endfacet
  facet normal 0 -0.406736 0.913546
    outer loop
      vertex 30 20.9876 15.4538
      vertex 26.5 22.792 16.2572
      vertex 26.5 20.9876 15.4538
    endloop
  endfacet
  facet normal 1 0 0
    outer loop
      vertex 26.5 20 21.7
      vertex 26.5 21.932 24.4393
      vertex 26.5 20 24.85
    endloop
  endfacet
  facet normal 1 0 0
    outer loop
      vertex 26.5 21.932 24.4393
      vertex 26.5 20 21.7
      vertex 26.5 21.3856 20.9
    endloop
  endfacet
  facet normal 1 -0 0
    outer loop
      vertex 26.5 18.0805 24.442
      vertex 26.5 20 21.7
      vertex 26.5 20 24.85
    endloop
  endfacet
  facet normal 1 -0 0
    outer loop
      vertex 26.5 15.4288 21.0568
      vertex 26.5 18.6144 20.9
      vertex 26.5 18.0805 24.442
    endloop
  endfacet
  facet normal 1 0 0
    outer loop
      vertex 26.5 20 21.7
      vertex 26.5 18.0805 24.442
      vertex 26.5 18.6144 20.9
    endloop
  endfacet
  facet normal 1 -0 0
    outer loop
      vertex 26.5 21.3856 20.9
      vertex 26.5 24.724 19.6035
      vertex 26.5 24.5175 21.5678
    endloop
  endfacet
  facet normal 1 0 0
    outer loop
      vertex 26.5 21.3856 20.9
      vertex 26.5 24.5175 21.5678
      vertex 26.5 23.5299 23.2784
    endloop
  endfacet
  facet normal 1 0 0
    outer loop
      vertex 26.5 24.724 19.6035
      vertex 26.5 21.3856 20.9
      vertex 26.5 21.3856 19.3
    endloop
  endfacet
  facet normal 1 0 0
    outer loop
      vertex 26.5 21.3856 20.9
      vertex 26.5 23.5299 23.2784
      vertex 26.5 21.932 24.4393
    endloop
  endfacet
  facet normal 1 0 0
    outer loop
      vertex 26.5 24.724 19.6035
      vertex 26.5 21.3856 19.3
      vertex 26.5 24.1136 17.725
    endloop
  endfacet
  facet normal 1 0 0
    outer loop
      vertex 26.5 24.1136 17.725
      vertex 26.5 21.3856 19.3
      vertex 26.5 22.792 16.2572
    endloop
  endfacet
  facet normal 1 -0 0
    outer loop
      vertex 26.5 20 18.5
      vertex 26.5 22.792 16.2572
      vertex 26.5 21.3856 19.3
    endloop
  endfacet
  facet normal 1 0 0
    outer loop
      vertex 26.5 22.792 16.2572
      vertex 26.5 20 18.5
      vertex 26.5 20.9876 15.4538
    endloop
  endfacet
  facet normal 1 0 0
    outer loop
      vertex 26.5 20 18.5
      vertex 26.5 19.0124 15.4538
      vertex 26.5 20.9876 15.4538
    endloop
  endfacet
  facet normal 1 0 0
    outer loop
      vertex 26.5 17.208 16.2572
      vertex 26.5 20 18.5
      vertex 26.5 18.6144 19.3
    endloop
  endfacet
  facet normal 1 0 0
    outer loop
      vertex 26.5 15.276 19.6035
      vertex 26.5 18.6144 20.9
      vertex 26.5 15.4288 21.0568
    endloop
  endfacet
  facet normal 1 0 0
    outer loop
      vertex 26.5 18.6144 20.9
      vertex 26.5 15.276 19.6035
      vertex 26.5 18.6144 19.3
    endloop
  endfacet
  facet normal 1 0 0
    outer loop
      vertex 26.5 20 18.5
      vertex 26.5 17.208 16.2572
      vertex 26.5 19.0124 15.4538
    endloop
  endfacet
  facet normal 1 0 0
    outer loop
      vertex 26.5 18.6144 19.3
      vertex 26.5 15.8864 17.725
      vertex 26.5 17.208 16.2572
    endloop
  endfacet
  facet normal 1 0 0
    outer loop
      vertex 26.5 18.6144 19.3
      vertex 26.5 15.276 19.6035
      vertex 26.5 15.8864 17.725
    endloop
  endfacet
  facet normal 0 -0.951056 0.309017
    outer loop
      vertex 26.5 24.1136 17.725
      vertex 30 24.724 19.6035
      vertex 26.5 24.724 19.6035
    endloop
  endfacet
  facet normal 0 -0.951056 0.309017
    outer loop
      vertex 30 24.724 19.6035
      vertex 26.5 24.1136 17.725
      vertex 30 24.1136 17.725
    endloop
  endfacet
  facet normal 0 0.207912 -0.978148
    outer loop
      vertex 26.5295 18.068 24.4393
      vertex 30 20 24.85
      vertex 30 18.068 24.4393
    endloop
  endfacet
  facet normal 3.33096e-05 0.207913 -0.978147
    outer loop
      vertex 26.5 20 24.85
      vertex 26.5295 18.068 24.4393
      vertex 26.5 18.0805 24.442
    endloop
  endfacet
  facet normal 0 0.207912 -0.978148
    outer loop
      vertex 26.5295 18.068 24.4393
      vertex 26.5 20 24.85
      vertex 30 20 24.85
    endloop
  endfacet
  facet normal 0 0.866025 -0.5
    outer loop
      vertex 30 15.4825 21.5678
      vertex 28.4778 16.4701 23.2784
      vertex 30 16.4701 23.2784
    endloop
  endfacet
  facet normal 0 0.866025 -0.5
    outer loop
      vertex 28.4778 16.4701 23.2784
      vertex 30 15.4825 21.5678
      vertex 27.4808 15.4825 21.5678
    endloop
  endfacet
  facet normal 0 0.587785 -0.809017
    outer loop
      vertex 28.4778 16.4701 23.2784
      vertex 30 18.068 24.4393
      vertex 30 16.4701 23.2784
    endloop
  endfacet
  facet normal 0 0.587785 -0.809017
    outer loop
      vertex 30 18.068 24.4393
      vertex 28.4778 16.4701 23.2784
      vertex 26.5295 18.068 24.4393
    endloop
  endfacet
  facet normal 0 0.951056 0.309017
    outer loop
      vertex 30 15.8864 17.725
      vertex 26.5 15.276 19.6035
      vertex 30 15.276 19.6035
    endloop
  endfacet
  facet normal 0 0.951056 0.309017
    outer loop
      vertex 26.5 15.276 19.6035
      vertex 30 15.8864 17.725
      vertex 26.5 15.8864 17.725
    endloop
  endfacet
  facet normal 0 0.743145 0.66913
    outer loop
      vertex 30 17.208 16.2572
      vertex 26.5 15.8864 17.725
      vertex 30 15.8864 17.725
    endloop
  endfacet
  facet normal 0 0.743145 0.66913
    outer loop
      vertex 26.5 15.8864 17.725
      vertex 30 17.208 16.2572
      vertex 26.5 17.208 16.2572
    endloop
  endfacet
  facet normal -0 0.406736 0.913546
    outer loop
      vertex 26.5 19.0124 15.4538
      vertex 30 17.208 16.2572
      vertex 30 19.0124 15.4538
    endloop
  endfacet
  facet normal 0 0.406736 0.913546
    outer loop
      vertex 30 17.208 16.2572
      vertex 26.5 19.0124 15.4538
      vertex 26.5 17.208 16.2572
    endloop
  endfacet
  facet normal 0 -0.5 -0.866025
    outer loop
      vertex 23.5 20 21.7
      vertex 26.5 21.3856 20.9
      vertex 26.5 20 21.7
    endloop
  endfacet
  facet normal -0 -0.5 -0.866025
    outer loop
      vertex 26.5 21.3856 20.9
      vertex 23.5 20 21.7
      vertex 23.5 21.3856 20.9
    endloop
  endfacet
  facet normal 0 -0.500001 0.866025
    outer loop
      vertex 23.5 21.3856 19.3
      vertex 26.5 20 18.5
      vertex 26.5 21.3856 19.3
    endloop
  endfacet
  facet normal 0 -0.500001 0.866025
    outer loop
      vertex 26.5 20 18.5
      vertex 23.5 21.3856 19.3
      vertex 23.5 20 18.5
    endloop
  endfacet
  facet normal 0 -1 0
    outer loop
      vertex 23.5 21.3856 19.3
      vertex 26.5 21.3856 20.9
      vertex 23.5 21.3856 20.9
    endloop
  endfacet
  facet normal 0 -1 -0
    outer loop
      vertex 26.5 21.3856 20.9
      vertex 23.5 21.3856 19.3
      vertex 26.5 21.3856 19.3
    endloop
  endfacet
  facet normal -0 0.500001 0.866025
    outer loop
      vertex 23.5 20 18.5
      vertex 26.5 18.6144 19.3
      vertex 26.5 20 18.5
    endloop
  endfacet
  facet normal 0 0.500001 0.866025
    outer loop
      vertex 26.5 18.6144 19.3
      vertex 23.5 20 18.5
      vertex 23.5 18.6144 19.3
    endloop
  endfacet
  facet normal 0 0.5 -0.866025
    outer loop
      vertex 23.5 18.6144 20.9
      vertex 26.5 20 21.7
      vertex 26.5 18.6144 20.9
    endloop
  endfacet
  facet normal 0 0.5 -0.866025
    outer loop
      vertex 26.5 20 21.7
      vertex 23.5 18.6144 20.9
      vertex 23.5 20 21.7
    endloop
  endfacet
  facet normal 0 1 -0
    outer loop
      vertex 26.5 18.6144 19.3
      vertex 23.5 18.6144 20.9
      vertex 26.5 18.6144 20.9
    endloop
  endfacet
  facet normal 0 1 0
    outer loop
      vertex 23.5 18.6144 20.9
      vertex 26.5 18.6144 19.3
      vertex 23.5 18.6144 19.3
    endloop
  endfacet
  facet normal -1 0 0
    outer loop
      vertex 23.5 21.3856 19.3
      vertex 23.5 23.5 30
      vertex 23.5 23.5 6.5
    endloop
  endfacet
  facet normal -1 0 0
    outer loop
      vertex 23.5 21.3856 20.9
      vertex 23.5 23.5 30
      vertex 23.5 21.3856 19.3
    endloop
  endfacet
  facet normal -1 0 0
    outer loop
      vertex 23.5 23.5 6.5
      vertex 23.5 20 18.5
      vertex 23.5 21.3856 19.3
    endloop
  endfacet
  facet normal -1 0 0
    outer loop
      vertex 23.5 23.5 6.5
      vertex 23.5 18.6144 19.3
      vertex 23.5 20 18.5
    endloop
  endfacet
  facet normal -1 -0 0
    outer loop
      vertex 23.5 18.6144 19.3
      vertex 23.5 5.08609 6.5
      vertex 23.5 18.6144 20.9
    endloop
  endfacet
  facet normal -1 0 0
    outer loop
      vertex 23.5 5.08609 6.5
      vertex 23.5 18.6144 19.3
      vertex 23.5 23.5 6.5
    endloop
  endfacet
  facet normal -1 -0 0
    outer loop
      vertex 23.5 23.5 30
      vertex 23.5 21.3856 20.9
      vertex 23.5 23.4944 30
    endloop
  endfacet
  facet normal -1 0 0
    outer loop
      vertex 23.5 20 21.7
      vertex 23.5 23.4944 30
      vertex 23.5 21.3856 20.9
    endloop
  endfacet
  facet normal -1 0 0
    outer loop
      vertex 23.5 18.6144 20.9
      vertex 23.5 23.4944 30
      vertex 23.5 20 21.7
    endloop
  endfacet
  facet normal -1 0 0
    outer loop
      vertex 23.5 23.4944 30
      vertex 23.5 18.6144 20.9
      vertex 23.5 5.08609 6.5
    endloop
  endfacet
  facet normal 0 -1 0
    outer loop
      vertex 23.5 23.5 6.5
      vertex 23.4941 23.5 30
      vertex 5.08573 23.5 6.5
    endloop
  endfacet
  facet normal 0 -1 0
    outer loop
      vertex 23.4941 23.5 30
      vertex 23.5 23.5 6.5
      vertex 23.5 23.5 30
    endloop
  endfacet
  facet normal -0 0 1
    outer loop
      vertex 21.6 12.5 6.5
      vertex 23.5 5.08609 6.5
      vertex 23.5 23.5 6.5
    endloop
  endfacet
  facet normal -0 -0 1
    outer loop
      vertex 23.496 5.08873 6.5
      vertex 23.5 5.08609 6.5
      vertex 21.6 12.5 6.5
    endloop
  endfacet
  facet normal 0 0 1
    outer loop
      vertex 23.5 5.08609 6.5
      vertex 23.496 5.08873 6.5
      vertex 23.498 5.08681 6.5
    endloop
  endfacet
  facet normal 0 0 1
    outer loop
      vertex 23.5 23.5 6.5
      vertex 20.8 13.8856 6.5
      vertex 21.6 12.5 6.5
    endloop
  endfacet
  facet normal 0 0 1
    outer loop
      vertex 23.5 23.5 6.5
      vertex 19.2 13.8856 6.5
      vertex 20.8 13.8856 6.5
    endloop
  endfacet
  facet normal -0 0 1
    outer loop
      vertex 14.1 20 6.5
      vertex 19.2 13.8856 6.5
      vertex 23.5 23.5 6.5
    endloop
  endfacet
  facet normal -0 0 1
    outer loop
      vertex 13.3 18.6144 6.5
      vertex 19.2 13.8856 6.5
      vertex 14.1 20 6.5
    endloop
  endfacet
  facet normal 0 0 1
    outer loop
      vertex 23.5 23.5 6.5
      vertex 13.3 21.3856 6.5
      vertex 14.1 20 6.5
    endloop
  endfacet
  facet normal -0 0 1
    outer loop
      vertex 5.08573 23.5 6.5
      vertex 13.3 21.3856 6.5
      vertex 23.5 23.5 6.5
    endloop
  endfacet
  facet normal 0 0 1
    outer loop
      vertex 11.7 21.3856 6.5
      vertex 5.08762 23.4971 6.5
      vertex 10.9 20 6.5
    endloop
  endfacet
  facet normal 0 0 1
    outer loop
      vertex 13.3 21.3856 6.5
      vertex 5.08573 23.5 6.5
      vertex 11.7 21.3856 6.5
    endloop
  endfacet
  facet normal 0 0 1
    outer loop
      vertex 11.7 21.3856 6.5
      vertex 5.08573 23.5 6.5
      vertex 5.08762 23.4971 6.5
    endloop
  endfacet
  facet normal 0 0 1
    outer loop
      vertex 5.08762 23.4971 6.5
      vertex 5.08573 23.5 6.5
      vertex 5.08625 23.4985 6.5
    endloop
  endfacet
  facet normal -0 0 1
    outer loop
      vertex 20.8 11.1144 6.5
      vertex 23.496 5.08873 6.5
      vertex 21.6 12.5 6.5
    endloop
  endfacet
  facet normal -0 0 1
    outer loop
      vertex 19.2 11.1144 6.5
      vertex 23.496 5.08873 6.5
      vertex 20.8 11.1144 6.5
    endloop
  endfacet
  facet normal 0 0 1
    outer loop
      vertex 19.2 13.8856 6.5
      vertex 13.3 18.6144 6.5
      vertex 18.4 12.5 6.5
    endloop
  endfacet
  facet normal -0 0 1
    outer loop
      vertex 11.7 18.6144 6.5
      vertex 18.4 12.5 6.5
      vertex 13.3 18.6144 6.5
    endloop
  endfacet
  facet normal 0 0 1
    outer loop
      vertex 18.4 12.5 6.5
      vertex 11.7 18.6144 6.5
      vertex 19.2 11.1144 6.5
    endloop
  endfacet
  facet normal 0 0 1
    outer loop
      vertex 19.2 11.1144 6.5
      vertex 11.7 18.6144 6.5
      vertex 23.496 5.08873 6.5
    endloop
  endfacet
  facet normal 0 0 1
    outer loop
      vertex 11.7 18.6144 6.5
      vertex 5.08762 23.4971 6.5
      vertex 23.496 5.08873 6.5
    endloop
  endfacet
  facet normal 0 0 1
    outer loop
      vertex 5.08762 23.4971 6.5
      vertex 11.7 18.6144 6.5
      vertex 10.9 20 6.5
    endloop
  endfacet
  facet normal -0.758427 -0.268016 0.594101
    outer loop
      vertex 0 30 2.9399
      vertex 5.08573 23.5 6.5
      vertex 21.1971 30 30
    endloop
  endfacet
  facet normal -0.758427 -0.268016 0.594101
    outer loop
      vertex 0 23.4985 0.00691069
      vertex 5.08573 23.5 6.5
      vertex 0 30 2.9399
    endloop
  endfacet
  facet normal -0.758398 -0.268148 0.594078
    outer loop
      vertex 5.08573 23.5 6.5
      vertex 0 23.4985 0.00691069
      vertex 5.08625 23.4985 6.5
    endloop
  endfacet
  facet normal -0.758427 -0.268015 0.594101
    outer loop
      vertex 21.1971 30 30
      vertex 5.08573 23.5 6.5
      vertex 23.4941 23.5 30
    endloop
  endfacet
  facet normal -0.268124 -0.758403 0.594082
    outer loop
      vertex 23.498 0 0.00620456
      vertex 23.5 5.08609 6.5
      vertex 23.498 5.08681 6.5
    endloop
  endfacet
  facet normal -0.268016 -0.758427 0.594101
    outer loop
      vertex 23.5 5.08609 6.5
      vertex 23.498 0 0.00620456
      vertex 30 0 2.93945
    endloop
  endfacet
  facet normal -0.268016 -0.758427 0.594101
    outer loop
      vertex 23.5 23.4944 30
      vertex 26.5 18.0805 24.442
      vertex 30 21.1974 30
    endloop
  endfacet
  facet normal -0.268016 -0.758427 0.594101
    outer loop
      vertex 23.5 23.4944 30
      vertex 26.5 15.4288 21.0568
      vertex 26.5 18.0805 24.442
    endloop
  endfacet
  facet normal -0.268016 -0.758427 0.594101
    outer loop
      vertex 26.5 15.4288 21.0568
      vertex 23.5 23.4944 30
      vertex 23.5 5.08609 6.5
    endloop
  endfacet
  facet normal -0.268046 -0.758409 0.59411
    outer loop
      vertex 26.5295 18.068 24.4393
      vertex 30 21.1974 30
      vertex 26.5 18.0805 24.442
    endloop
  endfacet
  facet normal -0.268015 -0.758427 0.594101
    outer loop
      vertex 28.4778 16.4701 23.2784
      vertex 30 21.1974 30
      vertex 26.5295 18.068 24.4393
    endloop
  endfacet
  facet normal -0.268016 -0.758427 0.594101
    outer loop
      vertex 30 0 2.93945
      vertex 26.5 15.4288 21.0568
      vertex 23.5 5.08609 6.5
    endloop
  endfacet
  facet normal -0.268016 -0.758427 0.594101
    outer loop
      vertex 26.5 15.4288 21.0568
      vertex 30 0 2.93945
      vertex 27.4808 15.4825 21.5678
    endloop
  endfacet
  facet normal -0.268016 -0.758427 0.594101
    outer loop
      vertex 28.4778 16.4701 23.2784
      vertex 30 0 2.93945
      vertex 30 21.1974 30
    endloop
  endfacet
  facet normal -0.268015 -0.758427 0.594101
    outer loop
      vertex 27.4808 15.4825 21.5678
      vertex 30 0 2.93945
      vertex 28.4778 16.4701 23.2784
    endloop
  endfacet
  facet normal -0.634995 -0.591069 0.497412
    outer loop
      vertex 5.08762 23.4971 6.5
      vertex 0 23.4985 0.00691069
      vertex 0 23.4971 0.00516323
    endloop
  endfacet
  facet normal -0.635046 -0.59098 0.497453
    outer loop
      vertex 0 23.4985 0.00691069
      vertex 5.08762 23.4971 6.5
      vertex 5.08625 23.4985 6.5
    endloop
  endfacet
  facet normal 0 0 -1
    outer loop
      vertex 12.0035 15.276 -0.00432968
      vertex 15.3538 13.4876 -0.00432968
      vertex 15.3538 11.5829 -0.00432968
    endloop
  endfacet
  facet normal 0 0 -1
    outer loop
      vertex 12.0035 15.276 -0.00432968
      vertex 15.3538 11.5829 -0.00432968
      vertex 13.6809 9.81563 -0.00432968
    endloop
  endfacet
  facet normal 0 0 -1
    outer loop
      vertex 15.3538 13.4876 -0.00432968
      vertex 12.0035 15.276 -0.00432968
      vertex 13.9678 15.4825 -0.00432968
    endloop
  endfacet
  facet normal 0 0 -1
    outer loop
      vertex 13.6809 9.81563 -0.00432968
      vertex 10.125 15.8864 -0.00432968
      vertex 12.0035 15.276 -0.00432968
    endloop
  endfacet
  facet normal 0 0 -1
    outer loop
      vertex 7.30767 16.1888 -0.00432968
      vertex 10.125 15.8864 -0.00432968
      vertex 13.6809 9.81563 -0.00432968
    endloop
  endfacet
  facet normal -0 0 -1
    outer loop
      vertex 8.65717 17.208 -0.00432968
      vertex 7.30767 16.1888 -0.00432968
      vertex 8.54105 17.4688 -0.00432968
    endloop
  endfacet
  facet normal 0 0 -1
    outer loop
      vertex 10.125 15.8864 -0.00432968
      vertex 7.30767 16.1888 -0.00432968
      vertex 8.65717 17.208 -0.00432968
    endloop
  endfacet
  facet normal 0 0 -1
    outer loop
      vertex 19.5035 17.224 -0.00432968
      vertex 16.8393 18.068 -0.00432968
      vertex 17.25 20 -0.00432968
    endloop
  endfacet
  facet normal 0 0 -1
    outer loop
      vertex 15.6784 16.4701 -0.00432968
      vertex 17.625 16.6136 -0.00432968
      vertex 16.1572 15.292 -0.00432968
    endloop
  endfacet
  facet normal -0 0 -1
    outer loop
      vertex 17.625 16.6136 -0.00432968
      vertex 15.6784 16.4701 -0.00432968
      vertex 16.8393 18.068 -0.00432968
    endloop
  endfacet
  facet normal 0 0 -1
    outer loop
      vertex 13.9678 15.4825 -0.00432968
      vertex 16.1572 15.292 -0.00432968
      vertex 15.3538 13.4876 -0.00432968
    endloop
  endfacet
  facet normal 0 0 -1
    outer loop
      vertex 16.1572 15.292 -0.00432968
      vertex 13.9678 15.4825 -0.00432968
      vertex 15.6784 16.4701 -0.00432968
    endloop
  endfacet
  facet normal 0 0 -1
    outer loop
      vertex 32.4492 35.3292 -0.00432968
      vertex 35.5202 34.8792 -0.00432968
      vertex 35.2331 33.0666 -0.00432968
    endloop
  endfacet
  facet normal 0 0 -1
    outer loop
      vertex 32.1734 33.5876 -0.00432968
      vertex 35.2331 33.0666 -0.00432968
      vertex 34.2335 31.5274 -0.00432968
    endloop
  endfacet
  facet normal 0 0 -1
    outer loop
      vertex 35.5202 34.8792 -0.00432968
      vertex 32.4492 35.3292 -0.00432968
      vertex 35.0452 36.6519 -0.00432968
    endloop
  endfacet
  facet normal -0 0 -1
    outer loop
      vertex 35.0452 36.6519 -0.00432968
      vertex 32.4492 35.3292 -0.00432968
      vertex 33.8902 38.0782 -0.00432968
    endloop
  endfacet
  facet normal 0 0 -1
    outer loop
      vertex 35.2331 33.0666 -0.00432968
      vertex 32.1734 33.5876 -0.00432968
      vertex 32.4492 35.3292 -0.00432968
    endloop
  endfacet
  facet normal 0 0 -1
    outer loop
      vertex 34.2335 31.5274 -0.00432968
      vertex 30.4317 33.3117 -0.00432968
      vertex 32.1734 33.5876 -0.00432968
    endloop
  endfacet
  facet normal 0 0 -1
    outer loop
      vertex 29.6312 34.8829 -0.00432968
      vertex 27.4112 37.052 -0.00432968
      vertex 28.7089 38.3497 -0.00432968
    endloop
  endfacet
  facet normal 0 0 -1
    outer loop
      vertex 30.4317 33.3117 -0.00432968
      vertex 27.4112 37.052 -0.00432968
      vertex 29.6312 34.8829 -0.00432968
    endloop
  endfacet
  facet normal 0 0 -1
    outer loop
      vertex 20.586 17.1102 -0.00432968
      vertex 30.4317 33.3117 -0.00432968
      vertex 34.2335 31.5274 -0.00432968
    endloop
  endfacet
  facet normal 0 0 -1
    outer loop
      vertex 16.8393 21.932 -0.00432968
      vertex 30.4317 33.3117 -0.00432968
      vertex 20.586 17.1102 -0.00432968
    endloop
  endfacet
  facet normal 0 0 -1
    outer loop
      vertex 17.25 20 -0.00432968
      vertex 20.586 17.1102 -0.00432968
      vertex 19.5035 17.224 -0.00432968
    endloop
  endfacet
  facet normal 0 0 -1
    outer loop
      vertex 16.8393 18.068 -0.00432968
      vertex 19.5035 17.224 -0.00432968
      vertex 17.625 16.6136 -0.00432968
    endloop
  endfacet
  facet normal 0 0 -1
    outer loop
      vertex 20.586 17.1102 -0.00432968
      vertex 17.25 20 -0.00432968
      vertex 16.8393 21.932 -0.00432968
    endloop
  endfacet
  facet normal 0 0 -1
    outer loop
      vertex 15.6784 23.5299 -0.00432968
      vertex 30.4317 33.3117 -0.00432968
      vertex 16.8393 21.932 -0.00432968
    endloop
  endfacet
  facet normal -0 0 -1
    outer loop
      vertex 30.4317 33.3117 -0.00432968
      vertex 15.6784 23.5299 -0.00432968
      vertex 27.4112 37.052 -0.00432968
    endloop
  endfacet
  facet normal 0 0 -1
    outer loop
      vertex 27.4112 37.052 -0.00432968
      vertex 15.6784 23.5299 -0.00432968
      vertex 14.8451 24.011 -0.00432968
    endloop
  endfacet
  facet normal 0 0 -1
    outer loop
      vertex 32.4492 35.3292 -0.00432968
      vertex 32.255 38.9114 -0.00432968
      vertex 33.8902 38.0782 -0.00432968
    endloop
  endfacet
  facet normal 0 0 -1
    outer loop
      vertex 30.878 36.1298 -0.00432968
      vertex 32.255 38.9114 -0.00432968
      vertex 32.4492 35.3292 -0.00432968
    endloop
  endfacet
  facet normal 0 0 -1
    outer loop
      vertex 30.878 36.1298 -0.00432968
      vertex 30.4223 39.0074 -0.00432968
      vertex 32.255 38.9114 -0.00432968
    endloop
  endfacet
  facet normal 0 0 -1
    outer loop
      vertex 28.7089 38.3497 -0.00432968
      vertex 30.878 36.1298 -0.00432968
      vertex 29.6312 34.8829 -0.00432968
    endloop
  endfacet
  facet normal 0 0 -1
    outer loop
      vertex 30.878 36.1298 -0.00432968
      vertex 28.7089 38.3497 -0.00432968
      vertex 30.4223 39.0074 -0.00432968
    endloop
  endfacet
  facet normal -0.618522 -0.618523 0.484624
    outer loop
      vertex 7.30595 16.1871 0
      vertex 0 23.4971 0.00516323
      vertex 0 23.493 0
    endloop
  endfacet
  facet normal -0.618557 -0.618557 0.484536
    outer loop
      vertex 0 23.4971 0.00516323
      vertex 7.30595 16.1871 0
      vertex 5.08762 23.4971 6.5
    endloop
  endfacet
  facet normal -0.618557 -0.618557 0.484536
    outer loop
      vertex 23.496 5.08873 6.5
      vertex 7.30595 16.1871 0
      vertex 13.6792 9.81383 0
    endloop
  endfacet
  facet normal -0.618557 -0.618557 0.484536
    outer loop
      vertex 7.30595 16.1871 0
      vertex 23.496 5.08873 6.5
      vertex 5.08762 23.4971 6.5
    endloop
  endfacet
  facet normal -0.61851 -0.61851 0.484656
    outer loop
      vertex 23.496 0 0.00375098
      vertex 13.6792 9.81383 0
      vertex 23.493 0 0
    endloop
  endfacet
  facet normal -0.618557 -0.618557 0.484536
    outer loop
      vertex 13.6792 9.81383 0
      vertex 23.496 0 0.00375098
      vertex 23.496 5.08873 6.5
    endloop
  endfacet
  facet normal -0.598735 -0.630528 0.493914
    outer loop
      vertex 23.496 5.08873 6.5
      vertex 23.498 0 0.00620456
      vertex 23.498 5.08681 6.5
    endloop
  endfacet
  facet normal -0.598798 -0.630491 0.493885
    outer loop
      vertex 23.498 0 0.00620456
      vertex 23.496 5.08873 6.5
      vertex 23.496 0 0.00375098
    endloop
  endfacet
  facet normal -0.614265 -0.614265 -0.495336
    outer loop
      vertex 7.30767 16.1888 -0.00432968
      vertex 13.6792 9.81383 0
      vertex 7.30595 16.1871 0
    endloop
  endfacet
  facet normal -0.614224 -0.614224 -0.495438
    outer loop
      vertex 13.6792 9.81383 0
      vertex 7.30767 16.1888 -0.00432968
      vertex 13.6809 9.81563 -0.00432968
    endloop
  endfacet
endsolid OpenSCAD_Model
